<?xml version="1.0" standalone="no"?>
<!DOCTYPE svg PUBLIC "-//W3C//DTD SVG 20010904//EN"
 "http://www.w3.org/TR/2001/REC-SVG-20010904/DTD/svg10.dtd">
<svg version="1.0" xmlns="http://www.w3.org/2000/svg"
 width="1024.000000pt" height="1024.000000pt" viewBox="0 0 1024.000000 1024.000000"
 preserveAspectRatio="xMidYMid meet">

<g transform="translate(0.000000,1024.000000) scale(0.100000,-0.100000)"
fill="#000000" stroke="none">
<path d="M5110 9775 c0 -5 -3 -62 -4 -126 -2 -64 -9 -126 -15 -138 -6 -11 -12
-36 -13 -55 -2 -44 -24 -54 -55 -24 -14 13 -23 17 -21 9 4 -16 -38 -26 -47
-11 -3 6 -1 10 6 10 7 0 10 3 6 6 -13 13 -92 12 -107 0 -8 -8 -28 -13 -43 -12
-16 1 -31 -2 -33 -6 -3 -5 -16 -5 -28 -2 -13 3 -59 -2 -102 -11 -43 -9 -98
-18 -121 -20 -24 -2 -83 -15 -132 -29 -50 -14 -97 -26 -106 -26 -8 0 -23 -4
-33 -9 -54 -28 -150 -70 -167 -74 -17 -4 -17 -5 3 -6 13 0 38 5 55 13 66 29
193 68 224 68 18 0 31 4 28 8 -3 4 13 10 35 12 26 2 40 -1 40 -8 0 -9 6 -9 25
-1 14 7 25 16 25 21 0 6 7 1 15 -10 8 -10 15 -14 15 -8 0 7 24 12 61 13 33 1
69 6 79 11 24 13 63 13 55 0 -3 -5 1 -10 10 -10 9 0 13 5 10 10 -3 6 -1 10 4
10 6 0 11 -4 11 -8 0 -5 24 -10 53 -11 87 -3 127 -15 127 -37 0 -8 5 -14 10
-14 6 0 10 -6 8 -14 -2 -8 2 -16 7 -18 6 -2 11 11 13 27 2 18 12 36 24 44 11
7 17 8 14 2 -4 -5 1 -14 10 -19 12 -7 15 -20 12 -51 -2 -22 0 -41 4 -41 14 0
9 -38 -7 -54 -8 -8 -15 -24 -15 -36 0 -11 -7 -23 -16 -27 -8 -3 -20 -17 -26
-32 -6 -15 -12 -21 -15 -13 -3 6 -9 10 -13 7 -5 -3 -5 -16 0 -30 8 -20 6 -25
-6 -25 -9 0 -12 5 -8 11 4 7 1 10 -7 7 -8 -3 -13 -13 -13 -22 2 -13 -8 -16
-49 -16 -57 0 -60 8 -4 12 22 1 37 7 37 15 0 7 -7 13 -15 13 -7 0 -19 8 -24
18 -9 15 -10 13 -8 -8 2 -21 -2 -25 -25 -25 -15 -1 -30 -4 -34 -8 -4 -3 -16
-1 -27 5 -20 11 -37 9 -214 -18 -18 -3 -35 -10 -39 -15 -4 -8 4 -9 27 -4 23 5
31 4 24 -3 -15 -16 -65 -26 -65 -13 0 6 -13 3 -32 -8 -49 -27 -89 -35 -100
-19 -6 9 -7 6 -3 -9 6 -23 1 -25 -99 -39 -45 -6 -48 -8 -31 -20 17 -13 14 -19
-7 -15 -5 0 -8 -3 -8 -8 0 -5 -15 -12 -32 -16 -60 -14 -66 -13 -60 8 4 17 3
18 -19 7 -13 -7 -26 -16 -29 -20 -3 -4 -23 -17 -45 -29 -22 -12 -53 -31 -70
-41 -16 -11 -42 -26 -57 -32 -16 -7 -28 -19 -28 -27 0 -12 3 -12 12 -3 7 7 21
12 33 12 16 0 17 -2 5 -9 -8 -6 -17 -8 -21 -5 -4 2 -10 0 -13 -5 -8 -13 -114
-43 -126 -36 -5 3 -19 1 -31 -6 -12 -6 -19 -7 -16 -2 3 5 -3 17 -14 26 -10 9
-19 24 -19 32 0 8 -5 15 -10 15 -6 0 -15 11 -20 25 -5 14 -17 25 -27 25 -11 0
-14 -3 -7 -8 14 -10 64 -101 64 -118 0 -8 4 -14 9 -14 13 0 21 -27 14 -46 -3
-8 -12 -13 -19 -10 -7 3 -16 1 -19 -5 -4 -5 -10 -7 -15 -4 -4 3 -27 -13 -50
-35 -23 -22 -48 -40 -54 -40 -6 0 -27 -16 -46 -35 -19 -19 -39 -35 -45 -35 -6
0 -37 -25 -68 -55 -31 -30 -61 -55 -66 -55 -5 0 -12 -9 -16 -20 -3 -11 -20
-29 -37 -42 -30 -21 -31 -21 -25 -2 5 14 0 11 -18 -9 -14 -16 -23 -32 -20 -37
3 -5 0 -12 -6 -16 -8 -5 -10 -2 -5 7 6 10 4 10 -6 -1 -7 -8 -20 -16 -28 -18
-8 -2 -17 -8 -18 -13 -2 -5 -9 -15 -16 -22 -7 -7 -25 -32 -40 -55 -15 -24 -33
-45 -41 -48 -8 -4 -24 -21 -36 -40 -22 -36 -42 -46 -34 -16 3 9 -1 4 -9 -13
-8 -16 -12 -33 -9 -38 2 -4 -1 -6 -8 -5 -7 2 -16 -8 -20 -22 -4 -14 -7 -19 -8
-11 -1 9 -13 2 -31 -19 -29 -32 -31 -33 -69 -22 -51 16 -62 15 -55 -3 4 -8 12
-15 19 -15 6 0 19 -8 28 -18 15 -17 15 -20 0 -42 -15 -22 -15 -23 0 -17 9 3
17 3 17 -1 0 -13 -17 -34 -26 -32 -5 1 -35 -51 -68 -116 -32 -66 -78 -157
-101 -204 -23 -47 -46 -100 -50 -118 -7 -35 -19 -33 -28 3 -3 13 -5 9 -6 -12
0 -18 -7 -50 -15 -70 -28 -79 -37 -114 -38 -143 -1 -16 -5 -27 -10 -24 -4 3
-8 -4 -8 -16 0 -12 4 -19 9 -16 5 3 3 -22 -4 -57 -7 -34 -16 -100 -20 -147 -4
-47 -12 -88 -18 -92 -13 -8 -14 -11 -16 -71 -1 -37 -5 -46 -28 -57 -16 -8 -35
-15 -43 -16 -31 -5 -90 -31 -84 -37 4 -3 -6 -9 -20 -13 -15 -3 -25 -9 -22 -11
3 -3 -10 -24 -28 -47 -51 -63 -56 -79 -58 -173 -1 -73 3 -95 22 -132 25 -51
109 -138 131 -138 30 0 118 -37 124 -52 9 -22 26 -148 29 -206 4 -87 17 -155
33 -170 8 -8 16 -36 19 -63 2 -29 10 -52 21 -59 13 -10 14 -13 2 -13 -12 0
-12 -2 0 -9 11 -7 11 -9 0 -13 -7 -2 -9 -9 -5 -17 7 -11 10 -11 18 0 5 9 6 5
2 -13 -3 -15 -2 -33 2 -40 5 -7 9 -17 11 -23 1 -5 7 -37 13 -70 14 -73 34
-100 28 -38 -3 33 -1 39 9 31 7 -6 13 -16 13 -23 0 -7 11 -33 25 -58 14 -25
28 -54 30 -64 9 -41 34 -98 42 -98 4 1 14 -10 21 -24 12 -23 10 -27 -28 -62
-50 -46 -52 -58 -3 -24 21 14 45 25 54 25 22 0 53 -36 43 -51 -4 -7 -3 -10 3
-6 6 4 15 -5 21 -21 5 -15 18 -36 28 -48 19 -19 35 -46 59 -91 7 -13 14 -20
17 -17 4 3 18 -17 34 -45 15 -28 33 -51 41 -51 7 0 13 -3 13 -8 0 -4 54 -63
121 -132 143 -148 158 -168 138 -181 -10 -6 -6 -8 13 -6 22 2 46 -16 124 -87
85 -79 134 -110 134 -84 0 4 -7 8 -15 8 -8 0 -20 10 -26 23 -7 12 -23 31 -37
42 -13 11 -33 28 -44 37 -11 10 -25 15 -30 12 -5 -3 -8 2 -6 12 2 12 -2 18
-11 16 -18 -4 -42 18 -34 31 3 5 2 7 -3 4 -6 -3 -16 8 -23 24 -12 26 -11 32 5
50 9 10 15 21 12 24 -3 3 -11 -1 -18 -10 -17 -20 -29 -19 -58 8 -14 12 -22 15
-17 7 22 -40 -61 52 -86 95 -16 28 -38 60 -49 72 -11 12 -20 27 -20 33 0 5 -4
10 -8 10 -4 0 -16 13 -25 30 -10 16 -40 52 -67 79 -28 28 -50 55 -50 60 0 5
-6 16 -13 23 -7 7 -22 31 -33 53 -11 22 -28 52 -38 67 -13 20 -15 31 -7 46 6
11 7 22 3 26 -3 4 1 4 11 0 15 -6 22 6 19 36 0 3 8 7 19 7 10 1 19 -2 19 -7 0
-5 34 9 75 31 l75 40 0 -26 c0 -14 4 -25 8 -25 17 0 21 13 10 34 l-11 21 21
-20 c11 -11 19 -24 18 -30 0 -5 6 -10 14 -11 30 -2 32 -4 23 -17 -12 -15 -13
-48 -1 -41 4 3 8 12 8 21 0 12 3 13 14 4 8 -7 12 -20 9 -30 -3 -10 0 -22 6
-25 7 -5 8 -1 4 10 -4 12 -2 15 8 12 8 -3 13 -10 12 -16 -1 -5 4 -13 12 -16 8
-3 15 -1 15 5 0 6 5 7 11 3 8 -5 6 -10 -5 -16 -9 -5 -16 -14 -16 -19 0 -6 4
-7 10 -4 5 3 21 -2 36 -11 21 -14 30 -15 45 -6 23 15 32 15 23 1 -5 -8 -1 -8
13 0 23 12 34 6 26 -15 -3 -8 0 -14 6 -14 7 0 14 7 17 15 4 9 19 15 41 15 36
0 36 1 15 -60 -3 -8 -2 -12 3 -8 4 4 28 -7 53 -24 25 -17 42 -26 38 -20 -3 6
-2 13 4 17 6 4 8 11 5 16 -3 5 1 6 9 3 8 -3 13 -11 10 -18 -3 -9 4 -11 27 -8
20 3 30 1 25 -6 -6 -10 23 -26 32 -17 3 3 -1 5 -9 5 -9 1 -8 4 5 12 15 8 21 7
28 -6 11 -20 25 -21 30 -1 2 10 15 4 47 -22 50 -42 103 -111 95 -124 -5 -8 3
-11 47 -14 9 0 24 -7 33 -14 13 -11 14 -16 4 -22 -9 -6 -9 -9 -1 -9 6 0 15 5
18 10 3 6 11 10 16 10 6 0 7 -4 4 -10 -3 -5 1 -10 9 -10 8 0 18 -9 21 -20 4
-11 10 -18 15 -15 12 8 90 -35 90 -49 0 -6 -5 -4 -10 4 -5 8 -10 11 -10 5 0
-23 18 -37 39 -30 17 5 21 2 21 -14 0 -12 5 -21 11 -21 5 0 7 4 4 10 -3 6 3
10 14 10 11 0 23 -9 27 -22 9 -28 29 -49 39 -40 4 4 4 -4 0 -18 -8 -27 -42
-78 -62 -95 -7 -5 -14 -20 -16 -33 -2 -12 -26 -46 -54 -75 -28 -29 -58 -66
-67 -84 -9 -18 -29 -52 -46 -76 -16 -25 -30 -50 -30 -56 0 -5 -9 -15 -20 -21
-11 -6 -18 -15 -15 -21 4 -5 1 -9 -4 -9 -6 0 -11 -6 -11 -14 0 -7 -18 -29 -39
-48 -22 -19 -48 -50 -59 -69 -11 -19 -25 -33 -32 -31 -8 2 -10 -3 -7 -13 4 -9
1 -15 -9 -15 -8 0 -13 -4 -10 -9 3 -5 -6 -20 -20 -32 -14 -13 -36 -44 -49 -69
-26 -48 -64 -100 -65 -87 0 4 8 20 17 35 l17 27 -28 -25 c-32 -29 -62 -75 -33
-51 10 7 17 9 17 4 0 -13 -64 -73 -78 -73 -7 0 -12 -3 -12 -7 0 -5 -17 -26
-38 -49 -69 -76 -127 -146 -178 -218 -28 -39 -56 -70 -62 -69 -7 2 -14 -8 -18
-22 -3 -14 -14 -25 -23 -26 -10 0 -12 -2 -3 -6 9 -3 3 -16 -18 -41 -17 -21
-40 -48 -51 -60 -10 -13 -19 -28 -19 -33 0 -9 -55 -86 -71 -99 -6 -5 -133
-151 -193 -221 -16 -19 -30 -33 -32 -31 -11 7 -34 0 -34 -10 -1 -7 -11 -26
-24 -41 l-23 -29 -32 39 -32 38 20 -45 c16 -36 18 -48 8 -61 -38 -52 -77 -100
-119 -147 -27 -30 -48 -60 -48 -67 0 -8 -12 -26 -27 -39 -22 -20 -25 -28 -15
-38 9 -9 12 -8 12 5 0 10 7 20 15 23 8 4 15 11 15 17 0 17 109 117 128 117 12
0 13 3 5 8 -9 6 -4 17 17 42 17 19 30 38 30 43 0 4 7 7 15 7 8 0 15 8 15 18 0
9 7 25 14 35 11 13 19 15 37 8 13 -5 18 -10 12 -10 -7 -1 -13 -8 -13 -15 0 -8
-11 -27 -25 -42 -14 -15 -25 -32 -25 -38 0 -6 5 -4 10 4 15 24 12 2 -5 -30 -9
-16 -26 -32 -40 -36 -19 -5 -23 -10 -16 -23 6 -11 4 -23 -5 -36 -14 -19 -14
-19 -15 1 0 18 -1 18 -8 -1 -10 -23 -4 -38 11 -29 5 4 3 -5 -7 -19 -18 -28
-41 -40 -57 -31 -5 3 -12 -4 -15 -16 -4 -17 -8 -19 -15 -8 -6 8 -7 1 -3 -21 6
-26 4 -32 -6 -29 -8 3 -13 14 -12 24 1 10 0 14 -3 7 -3 -7 -12 -9 -21 -6 -11
4 -14 3 -9 -6 4 -6 3 -17 -2 -24 -6 -7 -15 -31 -21 -54 l-12 -43 -49 0 c-40 0
-51 -4 -61 -21 -8 -15 -8 -19 0 -15 7 4 11 -1 11 -14 0 -11 -7 -23 -15 -26 -8
-4 -15 -12 -15 -20 0 -33 -39 -82 -60 -77 -12 4 -12 2 1 -9 9 -7 15 -21 13
-31 -4 -29 -14 -33 -14 -6 0 19 -2 21 -10 9 -5 -8 -10 -10 -10 -5 0 6 -7 2
-14 -8 -8 -10 -18 -16 -24 -15 -5 2 -12 -1 -13 -7 -2 -5 6 -11 17 -13 19 -3
20 -6 10 -27 -6 -14 -16 -25 -22 -25 -14 0 -23 -20 -17 -37 3 -9 10 -9 27 3
22 14 24 13 29 -7 5 -19 8 -20 21 -9 17 13 19 10 19 -32 0 -21 2 -21 26 -9 11
6 22 6 32 0 11 -8 11 -12 1 -16 -10 -4 -9 -8 5 -19 24 -18 39 -18 23 1 -13 16
-6 35 15 35 20 0 29 -19 16 -34 -9 -11 -6 -15 14 -20 14 -4 25 -10 25 -15 0
-14 -28 -33 -40 -26 -5 3 -10 0 -10 -9 0 -17 28 -15 40 4 16 25 35 -12 38 -73
3 -46 8 -63 29 -85 15 -15 23 -22 19 -15 -3 6 -2 14 4 18 5 3 16 -9 23 -27 8
-18 21 -39 30 -47 10 -7 17 -19 17 -25 0 -6 -5 -4 -10 4 -5 8 -10 11 -10 5 0
-5 5 -17 10 -25 6 -10 10 -11 10 -2 0 22 18 12 22 -13 4 -17 0 -29 -11 -35 -9
-5 -13 -10 -9 -10 4 0 0 -12 -7 -27 -10 -18 -11 -31 -5 -37 14 -14 12 -26 -2
-22 -7 1 -10 1 -5 -1 4 -3 7 -11 7 -18 0 -7 7 -16 16 -19 8 -3 12 -11 8 -17
-4 -7 -3 -9 3 -6 12 8 56 -27 46 -36 -3 -4 -12 1 -19 11 -12 15 -12 15 -7 -5
3 -13 9 -23 13 -23 18 0 19 -33 3 -47 -10 -8 -12 -12 -5 -8 6 3 12 1 12 -4 0
-6 16 -11 35 -11 30 0 43 -9 33 -23 -2 -2 4 -12 12 -23 8 -10 10 -16 6 -12 -5
4 -16 2 -25 -5 -14 -10 -14 -10 -4 3 8 10 9 21 3 30 -8 12 -10 12 -10 1 0 -10
-3 -11 -14 -2 -9 8 -16 8 -20 2 -4 -5 -2 -12 4 -16 12 -8 13 -25 2 -25 -5 0
-14 10 -21 22 -6 13 -9 15 -7 6 4 -12 -4 -24 -22 -35 -15 -10 -30 -22 -34 -28
-5 -6 -8 -6 -8 0 0 6 -5 3 -10 -5 -8 -12 -14 -13 -41 -3 -26 10 -35 10 -53 -3
-20 -15 -20 -15 8 -8 24 6 28 4 23 -9 -4 -11 -2 -14 8 -11 28 11 37 -7 15 -28
-17 -16 -24 -18 -30 -8 -6 10 -12 8 -28 -6 -20 -19 -19 -19 61 -20 64 -2 83
-5 93 -19 10 -13 21 -16 44 -11 28 5 30 4 16 -10 -20 -20 -20 -30 0 -38 23 -9
24 -8 17 12 -5 13 -1 12 16 -5 12 -13 26 -23 31 -23 6 0 10 -4 10 -9 0 -5 -9
-7 -20 -4 -29 8 -24 -6 6 -17 19 -7 31 -7 40 1 12 10 13 9 8 -5 -3 -9 -1 -23
6 -31 7 -8 10 -21 7 -29 -8 -20 12 -33 46 -30 24 3 27 0 21 -18 -5 -16 -3 -19
7 -12 11 6 11 4 0 -10 -8 -10 -23 -15 -33 -13 -10 3 -18 2 -18 -3 0 -15 -48
-17 -81 -3 -38 16 -45 12 -29 -16 7 -14 7 -21 0 -21 -5 0 -10 -6 -10 -12 0
-21 50 -38 127 -45 40 -3 70 -10 67 -14 -3 -5 8 -6 24 -3 19 4 32 1 37 -7 5
-8 4 -10 -3 -5 -7 4 -12 1 -12 -8 0 -17 42 -32 59 -21 6 3 11 1 11 -6 0 -7 11
-10 29 -7 17 2 28 1 25 -3 -2 -4 2 -9 8 -12 9 -3 7 -13 -9 -35 -25 -33 -29
-47 -13 -37 6 3 15 3 22 -1 7 -5 5 -11 -8 -21 -18 -14 -18 -14 6 -11 14 2 25
8 25 15 0 6 3 15 8 19 4 4 7 1 7 -6 0 -7 7 -21 16 -31 14 -16 14 -18 -4 -23
-32 -11 -35 -34 -4 -28 24 5 26 3 13 -11 -9 -12 -10 -17 -2 -17 7 0 -1 -11
-16 -25 l-28 -25 90 3 c85 2 90 3 88 23 -1 12 4 21 12 21 10 0 13 -7 9 -24
l-6 -23 1315 0 c1310 0 1315 0 1310 20 -4 16 0 20 18 20 17 0 20 -3 11 -9 -21
-13 6 -27 56 -30 49 -2 57 14 11 24 -22 5 -34 3 -40 -6 -4 -7 -12 -10 -16 -5
-4 4 0 13 10 21 16 11 16 13 1 19 -8 3 -25 6 -36 6 -27 0 -15 12 14 15 13 1
40 10 62 19 40 18 71 15 63 -7 -7 -18 82 -15 94 3 6 10 11 12 17 4 11 -16 47
-23 66 -12 11 6 16 5 16 -2 0 -7 -9 -14 -20 -17 -11 -3 -17 -9 -14 -14 3 -5
15 -4 27 3 20 10 21 10 8 -6 -13 -15 -13 -19 0 -27 12 -7 11 -9 -3 -9 -9 0
-19 6 -21 13 -3 7 -6 5 -6 -5 -1 -16 9 -18 82 -18 l83 0 16 35 c10 23 12 35 4
35 -6 0 -5 4 3 9 8 5 32 8 54 5 29 -3 44 1 54 14 14 16 14 16 9 0 -3 -10 -9
-26 -12 -35 -3 -10 10 -1 28 20 26 29 41 38 59 35 20 -2 24 1 22 19 -3 22 15
28 28 10 3 -5 23 -1 44 7 48 20 48 20 34 -7 -12 -22 -12 -22 9 -4 11 11 27 16
34 12 7 -3 4 1 -6 9 -17 14 -17 16 -4 16 9 0 20 -4 23 -10 3 -5 11 -10 16 -10
6 0 7 5 3 12 -4 6 -3 8 4 5 16 -11 42 3 42 22 0 13 2 13 9 2 5 -8 10 -9 12 -3
2 6 25 12 51 14 25 2 46 8 45 13 -1 6 10 11 26 13 15 2 27 7 27 13 0 5 8 8 18
7 38 -3 62 3 60 14 -2 7 10 14 26 17 17 3 30 11 30 16 1 6 4 9 9 7 4 -1 7 3 7
9 0 5 5 7 10 4 6 -3 10 -1 10 5 0 7 5 6 14 -2 8 -7 12 -15 11 -18 -2 -3 7 -7
21 -8 13 -1 24 3 24 9 0 5 4 7 10 4 5 -3 19 -1 30 5 13 7 20 7 20 0 0 -5 5
-10 10 -10 6 0 10 7 10 15 0 8 4 15 10 15 5 0 7 7 4 15 -4 11 0 15 16 15 13 0
24 8 27 20 7 26 16 25 28 -1 14 -30 28 -25 29 10 1 18 -6 34 -16 40 -10 6 -18
7 -18 2 0 -5 -11 -12 -25 -15 -15 -4 -22 -11 -19 -20 3 -8 -4 -16 -18 -19 -20
-5 -21 -4 -7 6 12 9 14 18 8 35 -5 13 -4 22 1 22 5 0 7 6 4 14 -4 11 2 14 25
14 17 -1 31 -6 31 -11 0 -6 9 -2 19 7 11 10 18 23 15 30 -6 15 34 58 47 51 13
-8 1 -25 -17 -25 -8 0 -14 -5 -14 -11 0 -5 5 -7 11 -3 6 3 15 1 19 -6 12 -19
32 -1 26 24 -6 28 40 67 50 42 13 -34 124 -1 153 46 12 20 12 22 -1 11 -8 -7
-28 -12 -44 -12 -30 0 -51 -3 -96 -15 -15 -5 -35 -3 -48 4 -15 8 -25 9 -32 2
-7 -7 -22 -5 -45 5 -19 8 -38 12 -41 9 -3 -3 0 -6 6 -6 7 0 12 -5 12 -10 0 -6
-8 -5 -20 2 -11 7 -16 14 -10 16 15 5 12 22 -4 22 -8 0 -18 5 -22 11 -5 8 1
10 18 6 18 -5 30 -2 39 10 13 15 12 15 -8 4 -27 -14 -32 3 -5 18 11 7 13 10 3
11 -10 0 -12 8 -7 30 4 23 2 29 -7 25 -6 -4 -3 1 7 9 11 9 17 16 13 16 -4 0 1
10 12 22 11 11 18 24 16 29 -3 4 5 5 17 1 17 -4 20 -2 15 12 -5 13 -2 15 17
12 23 -4 23 -4 9 26 -8 16 -13 32 -9 35 9 10 56 -27 57 -45 0 -10 3 -12 6 -4
7 18 21 15 28 -8 3 -11 10 -20 14 -20 5 0 0 18 -11 40 -11 22 -25 40 -31 40
-7 0 -7 4 1 12 9 9 15 9 24 0 7 -7 20 -12 30 -12 10 0 18 -5 18 -11 0 -5 5 -7
11 -3 8 5 5 11 -8 18 -20 12 -20 46 1 58 8 4 11 23 9 48 -2 23 1 39 6 36 4 -3
5 12 1 34 -8 44 -4 54 25 58 11 2 21 8 23 12 6 17 31 -2 25 -18 -4 -13 -2 -14
4 -4 6 7 20 14 31 15 26 2 28 13 7 33 -12 12 -13 20 -4 37 20 35 46 60 54 48
12 -21 25 -11 25 19 0 22 6 33 22 40 52 21 79 63 51 78 -11 6 -12 11 -4 16 6
4 11 3 11 -3 0 -6 7 -8 16 -4 15 5 15 7 0 15 -23 13 -20 41 8 65 18 15 23 28
19 44 -5 17 -3 20 8 14 12 -8 12 -6 0 9 -8 9 -10 16 -5 15 25 -4 34 4 34 31 0
17 4 30 10 30 5 0 7 -7 4 -15 -5 -11 -2 -13 10 -9 18 7 22 34 5 34 -5 0 -7 5
-4 10 3 6 1 10 -4 10 -6 0 -11 9 -11 20 0 11 -9 29 -20 40 -11 11 -20 25 -20
30 0 6 -9 19 -20 30 -11 11 -16 20 -11 20 5 0 7 9 4 20 -3 12 0 20 6 20 7 0 9
5 5 11 -3 6 -15 9 -25 6 -12 -3 -19 0 -19 9 0 8 5 14 12 14 9 0 9 3 1 11 -13
13 -73 3 -73 -12 0 -15 -17 -10 -24 7 -4 10 -2 13 7 8 8 -5 8 -2 -2 9 -7 9
-17 15 -21 12 -5 -3 -11 -1 -14 4 -4 5 -2 12 3 16 9 5 12 45 4 45 -2 0 -7 -10
-12 -22 -8 -22 -8 -22 -26 5 -9 15 -17 38 -17 52 0 13 -6 23 -12 22 -6 -1 -11
10 -12 26 -1 15 -5 31 -9 35 -5 4 -5 -2 -1 -13 6 -18 5 -18 -16 3 -20 19 -21
24 -8 33 11 8 9 9 -10 4 -21 -5 -23 -4 -10 7 22 19 26 60 6 52 -9 -3 -17 -1
-17 5 -1 6 -2 17 -3 24 -1 6 -9 11 -19 11 -9 -1 -17 2 -17 7 0 5 6 9 13 9 14
0 17 64 2 68 -6 1 -18 -4 -27 -13 -10 -8 -20 -10 -23 -4 -4 5 -11 7 -16 4 -5
-4 -9 1 -9 9 0 9 -9 16 -20 16 -12 0 -20 7 -20 17 0 9 -3 14 -6 10 -3 -3 -15
3 -26 13 -11 10 -26 16 -33 14 -7 -3 -16 -1 -20 5 -3 6 -2 11 4 11 6 0 8 6 5
14 -3 7 -16 12 -29 10 -14 -1 -27 2 -31 7 -3 5 2 9 11 9 12 0 14 6 9 27 -4 16
-8 30 -10 32 -4 4 -8 -27 -5 -42 1 -5 -3 -6 -9 -2 -5 3 -10 17 -10 29 0 14
-10 30 -23 39 -13 8 -34 31 -47 50 -14 20 -35 39 -47 42 -12 3 -32 23 -44 45
-12 22 -31 42 -41 46 -11 3 -24 18 -31 32 -6 15 -16 30 -21 34 -6 4 -4 13 5
24 12 15 12 16 -9 10 -18 -6 -22 -4 -22 13 0 12 -5 21 -11 21 -5 0 -7 4 -4 10
3 5 1 10 -4 10 -6 0 -11 12 -11 26 0 17 -4 23 -12 18 -8 -5 -9 -2 -5 9 3 9 2
19 -2 22 -5 3 -11 -2 -15 -10 -3 -8 -12 -12 -21 -9 -8 3 -12 10 -9 15 3 5 -4
9 -15 9 -19 0 -27 16 -22 44 1 5 -5 4 -13 -3 -13 -11 -17 -10 -22 3 -3 9 -4
22 -1 29 3 9 -3 13 -16 13 -13 -1 -23 6 -25 17 -4 18 -21 42 -53 76 -27 28
-59 88 -59 110 0 12 -4 19 -10 16 -6 -3 -10 3 -10 14 0 12 -16 39 -36 61 -29
32 -35 46 -32 70 4 26 1 30 -18 30 -13 0 -24 -7 -27 -18 -4 -16 -5 -16 -6 0
-1 10 -7 15 -15 12 -13 -5 -46 35 -46 56 0 6 -11 28 -25 48 -14 20 -25 47 -25
59 0 12 -12 34 -27 48 -15 14 -22 25 -15 25 6 0 12 5 12 11 0 6 -8 9 -19 6
-10 -2 -29 4 -42 15 -16 14 -18 18 -6 14 10 -3 17 0 17 7 0 8 4 6 10 -3 5 -8
10 -10 10 -5 0 6 -5 17 -10 25 -6 10 -10 11 -10 3 0 -22 -48 -15 -55 7 -3 11
-9 20 -13 20 -4 0 -8 25 -10 56 -1 31 -7 64 -12 74 -7 13 -6 20 4 23 8 3 16
18 18 34 2 19 10 29 28 34 14 4 21 7 16 8 -8 1 27 27 103 76 9 6 57 51 106
101 50 49 107 102 128 118 33 25 37 26 38 10 0 -11 3 -14 6 -6 2 6 9 12 14 12
8 0 166 156 272 270 38 40 48 57 43 75 -4 15 0 27 12 36 15 13 16 12 3 -4 -8
-9 -12 -19 -10 -21 9 -8 50 15 55 31 3 10 11 29 17 43 6 14 10 28 9 33 -1 4 3
7 9 7 5 0 19 19 29 43 10 23 30 53 44 67 15 13 26 31 26 41 0 12 6 16 20 12
11 -3 20 -10 20 -15 0 -5 5 -6 10 -3 6 4 7 11 4 17 -4 6 -1 8 7 6 8 -3 13 -11
11 -18 -3 -11 0 -11 12 -1 8 7 21 9 28 5 7 -4 10 -4 6 1 -4 4 -18 13 -30 20
-13 6 -22 18 -22 27 1 10 -4 14 -12 11 -8 -3 -14 0 -14 7 0 6 -4 8 -10 5 -6
-3 -10 -1 -10 4 0 6 7 11 15 11 8 0 19 10 26 21 9 17 8 20 -3 13 -11 -6 -11
-5 1 9 7 9 18 14 25 10 7 -5 7 -2 -1 8 -14 17 -3 42 17 37 7 -2 21 12 32 31
15 27 16 32 4 28 -24 -9 -19 3 9 25 14 11 25 28 24 37 -1 9 5 32 14 52 34 76
87 244 98 308 6 36 15 71 20 77 5 6 7 13 4 15 -2 3 4 40 15 83 10 43 16 85 13
94 -4 15 -3 15 6 2 9 -13 11 -13 12 0 1 8 0 25 0 37 -1 11 3 24 8 28 7 4 8 -1
4 -12 -4 -13 -3 -15 6 -7 9 8 8 17 -2 37 -8 15 -16 26 -18 24 -2 -1 2 4 10 10
12 10 16 10 23 0 5 -7 8 -2 8 15 0 19 5 27 18 26 48 -1 94 13 112 34 11 13 20
19 20 13 0 -5 14 15 32 45 17 30 35 57 39 60 5 3 12 24 17 45 7 32 12 39 28
37 10 -2 23 -9 27 -15 5 -7 7 -1 4 16 -3 17 0 27 8 27 16 0 47 -35 38 -43 -3
-4 1 -7 10 -7 11 0 17 8 17 24 0 14 5 28 10 31 6 4 8 11 4 16 -3 5 -10 7 -15
4 -5 -4 -9 -1 -9 4 0 6 19 14 41 17 32 5 37 9 25 16 -9 5 -24 8 -33 6 -10 -2
-18 3 -18 10 0 6 -4 11 -10 10 -5 -2 -9 -6 -8 -10 2 -4 -4 -5 -12 -2 -9 4 -15
0 -15 -10 0 -19 -10 -20 -45 -4 -26 12 -36 32 -11 22 11 -4 13 0 9 15 -3 12
-10 24 -16 28 -5 3 -7 1 -3 -5 3 -6 2 -13 -4 -17 -6 -4 -13 7 -16 24 -4 17
-10 28 -15 25 -5 -3 -9 0 -9 6 0 17 -73 101 -85 97 -5 -2 -21 4 -34 14 -14 11
-40 19 -63 19 -32 0 -39 3 -34 15 7 18 -5 20 -22 3 -12 -12 -13 -11 -18 32 -2
14 -6 44 -10 67 -4 28 -2 48 5 57 13 15 33 76 25 76 -2 0 -10 -12 -16 -27
l-11 -28 -7 25 c-5 14 -9 21 -10 15 -3 -21 -40 111 -40 144 0 33 -39 162 -52
171 -3 3 -10 18 -13 33 -4 15 -11 27 -16 27 -5 0 -8 3 -7 8 2 13 -15 66 -29
88 -7 11 -14 32 -15 47 -1 15 -6 27 -9 27 -10 0 -32 70 -25 77 3 4 9 -8 12
-26 8 -37 19 -48 21 -19 1 11 -5 27 -13 35 -7 8 -14 24 -14 36 0 16 -3 18 -9
8 -7 -11 -10 -11 -17 0 -5 8 -10 23 -11 33 -2 11 -8 25 -14 32 -6 7 -8 18 -5
23 4 6 -3 15 -14 21 -11 6 -20 20 -20 31 0 11 -7 34 -17 52 -9 17 -19 43 -24
57 -5 16 -8 19 -8 8 -1 -10 -6 -18 -11 -18 -13 0 -9 32 5 42 6 5 3 8 -7 8 -20
0 -18 32 3 38 8 3 25 14 39 25 21 17 22 19 5 15 -11 -3 -27 -7 -35 -9 -8 -2
-18 -8 -22 -14 -4 -5 -17 2 -30 15 -35 36 -91 110 -83 110 3 0 -7 13 -22 28
-15 16 -39 43 -53 61 -54 71 -92 114 -115 133 -14 11 -25 26 -25 33 0 8 -6 12
-14 9 -11 -4 -13 0 -9 15 3 12 1 21 -6 21 -6 0 -11 4 -11 9 0 16 -59 73 -69
67 -11 -7 -61 61 -61 81 0 9 -11 12 -35 9 -37 -5 -43 1 -22 23 8 10 8 12 0 7
-6 -3 -14 -2 -18 4 -3 5 -14 10 -24 10 -9 0 -27 9 -39 20 -12 11 -25 20 -29
21 -4 0 -51 26 -103 58 -71 43 -94 62 -94 78 0 20 62 80 106 104 11 6 17 13
15 16 -7 7 -46 -15 -76 -43 -14 -13 -33 -24 -42 -24 -9 0 -21 -6 -27 -13 -14
-16 -68 -16 -65 1 2 6 -3 9 -11 6 -7 -3 -20 2 -29 10 -9 9 -21 14 -29 13 -7
-2 -10 -2 -5 0 13 8 -3 23 -24 23 -10 0 -19 5 -19 11 0 5 -8 10 -17 9 -31 -3
-61 11 -78 36 -10 15 -25 24 -41 24 -18 0 -24 4 -21 13 8 20 -6 37 -22 28 -10
-6 -10 -13 -2 -29 10 -18 9 -19 -13 -9 -14 7 -22 15 -20 19 3 5 -11 6 -31 3
-23 -3 -33 0 -29 6 3 6 0 10 -7 8 -27 -3 -40 1 -34 11 6 9 -8 14 -28 11 -5 -1
-6 3 -2 9 3 5 2 10 -4 10 -5 0 -22 5 -38 12 -15 6 -31 11 -35 10 -5 -1 -8 2
-8 8 0 5 -6 7 -14 4 -8 -3 -23 -1 -33 5 -14 8 -15 11 -3 11 10 1 9 4 -5 10
-28 12 -47 12 -40 0 4 -7 -3 -8 -21 -4 -19 5 -25 4 -20 -5 4 -6 2 -11 -4 -11
-7 0 -9 8 -5 20 4 11 2 20 -4 20 -6 0 -11 -6 -11 -14 0 -9 -7 -12 -20 -9 -11
3 -20 10 -20 15 0 5 -4 6 -10 3 -5 -3 -10 -1 -10 4 0 6 -18 11 -39 11 -22 0
-42 4 -45 9 -10 15 -146 42 -146 29 0 -5 -7 -2 -16 6 -8 9 -26 16 -40 16 -13
0 -24 5 -24 11 0 7 -10 9 -25 7 -23 -5 -25 -2 -26 31 -1 27 -3 30 -6 11 -7
-35 -16 -42 -48 -34 -26 7 -27 8 -10 20 10 8 16 17 12 20 -9 9 -37 -15 -37
-32 0 -8 -8 -11 -21 -9 -28 6 -36 14 -22 23 6 4 14 25 16 47 3 22 10 52 16 68
7 19 7 27 0 27 -7 0 -9 10 -5 28 4 15 7 32 8 39 1 7 4 10 8 8 3 -2 14 5 23 16
9 10 13 19 9 19 -4 1 4 7 18 15 19 11 21 14 8 15 -25 0 -23 20 1 20 11 0 23 5
26 11 5 7 15 5 31 -5 31 -21 37 -20 29 4 -4 11 -2 20 4 20 6 0 11 -4 11 -10 0
-5 17 -10 38 -9 30 0 33 2 17 9 -14 6 -16 9 -5 10 27 3 74 1 100 -4 14 -3 48
-7 75 -10 28 -2 63 -9 78 -15 16 -6 26 -7 22 -2 -7 12 -83 37 -162 53 -35 6
-63 16 -63 21 0 4 -5 5 -11 2 -6 -4 -19 2 -30 14 -11 12 -15 21 -9 21 5 0 10
8 10 18 -1 14 -3 14 -19 -5 -11 -13 -25 -23 -31 -23 -10 0 -10 -3 0 -15 9 -11
9 -15 1 -15 -6 0 -14 7 -17 15 -7 17 -44 21 -44 5 0 -5 -5 -10 -11 -10 -5 0
-7 5 -4 10 3 6 1 10 -4 10 -6 0 -11 -3 -11 -7 0 -5 -10 -19 -21 -33 -14 -17
-19 -20 -17 -8 2 9 -1 17 -7 17 -5 0 -9 -7 -7 -15 4 -19 -8 -18 -24 4 -12 15
-12 15 -7 -7 7 -26 -3 -24 -38 6 -14 12 -17 11 -22 -9 -6 -21 -7 -21 -27 -3
-14 13 -20 14 -20 5 0 -7 -2 -11 -5 -9 -2 3 2 30 9 62 7 31 11 59 8 62 -3 3
-7 46 -10 96 -3 77 -18 164 -22 134z m-400 -385 c0 -5 -2 -10 -4 -10 -3 0 -8
5 -11 10 -3 6 -1 10 4 10 6 0 11 -4 11 -10z m150 0 c0 -5 -2 -10 -4 -10 -3 0
-8 5 -11 10 -3 6 -1 10 4 10 6 0 11 -4 11 -10z m128 3 c-10 -2 -18 -12 -18
-20 0 -9 -3 -14 -6 -10 -12 11 5 37 23 36 17 -1 17 -2 1 -6z m109 -75 c-3 -7
-5 -2 -5 12 0 14 2 19 5 13 2 -7 2 -19 0 -25z m157 7 c-4 -8 -10 -12 -15 -9
-11 6 -2 24 11 24 5 0 7 -7 4 -15z m-49 -45 c3 -5 1 -10 -4 -10 -6 0 -11 5
-11 10 0 6 2 10 4 10 3 0 8 -4 11 -10z m-183 -212 c-7 -7 -12 -8 -12 -2 0 14
12 26 19 19 2 -3 -1 -11 -7 -17z m-257 -48 c16 -6 17 -9 5 -14 -8 -3 -24 -4
-35 -2 -11 3 -24 5 -30 5 -13 2 17 21 30 20 6 0 19 -4 30 -9z m637 -19 c-12
-7 -62 -4 -62 5 0 2 17 4 38 4 23 0 32 -3 24 -9z m-662 -11 c0 -5 -5 -10 -11
-10 -5 0 -7 5 -4 10 3 6 8 10 11 10 2 0 4 -4 4 -10z m350 6 c0 -2 -8 -10 -17
-17 -16 -13 -17 -12 -4 4 13 16 21 21 21 13z m-474 -23 c-2 -10 -11 -19 -22
-20 -18 -3 -18 -2 1 6 11 5 16 10 12 10 -5 1 -5 6 -2 11 9 15 14 12 11 -7z
m561 -25 c-3 -7 -5 -2 -5 12 0 14 2 19 5 13 2 -7 2 -19 0 -25z m453 -34 c0 -2
-15 -4 -32 -4 -23 0 -29 3 -19 9 12 8 51 4 51 -5z m-1153 0 c-3 -3 -12 -4 -19
-1 -8 3 -5 6 6 6 11 1 17 -2 13 -5z m163 -4 c0 -5 -5 -10 -11 -10 -5 0 -7 5
-4 10 3 6 8 10 11 10 2 0 4 -4 4 -10z m1030 -6 c0 -2 -7 -4 -15 -4 -8 0 -15 4
-15 10 0 5 7 7 15 4 8 -4 15 -8 15 -10z m-493 -16 c-3 -8 -6 -5 -6 6 -1 11 2
17 5 13 3 -3 4 -12 1 -19z m790 -24 c-5 -5 -69 16 -82 27 -5 5 12 2 38 -7 27
-9 46 -18 44 -20z m-190 -46 c-3 -8 -6 -5 -6 6 -1 11 2 17 5 13 3 -3 4 -12 1
-19z m-1650 -23 c-9 -8 -18 -15 -21 -15 -8 0 6 34 18 42 17 12 19 -10 3 -27z
m1783 -26 c0 -14 -52 -20 -66 -8 -12 10 -11 14 8 24 22 11 58 1 58 -16z m88
-1 c2 -5 14 -3 25 5 32 20 85 -3 82 -35 -2 -17 2 -24 15 -24 15 0 16 4 8 19
-12 24 -5 32 12 12 14 -17 35 -21 25 -5 -8 13 -2 13 30 -2 15 -6 21 -14 15
-18 -6 -4 22 -20 62 -36 40 -16 95 -44 123 -61 27 -18 52 -33 56 -33 14 0 16
-37 3 -55 -16 -22 -18 -45 -4 -45 6 0 10 5 10 11 0 15 26 39 34 31 4 -3 9 4
13 16 5 21 7 21 18 6 7 -10 23 -19 36 -21 30 -5 71 -31 64 -43 -3 -4 4 -6 15
-3 11 3 20 1 20 -5 0 -5 13 -15 28 -21 15 -6 41 -23 56 -36 16 -14 33 -25 38
-25 4 0 8 -7 8 -15 0 -8 5 -15 11 -15 5 0 7 6 3 12 -12 19 94 -72 125 -107 14
-16 46 -51 71 -77 25 -26 68 -72 95 -103 28 -31 65 -73 84 -93 18 -20 47 -57
64 -82 17 -25 34 -46 39 -48 4 -2 8 -9 8 -16 0 -8 9 -25 20 -39 15 -18 17 -27
8 -30 -10 -4 -9 -8 2 -16 8 -6 11 -11 5 -12 -5 -1 -15 -2 -21 -3 -6 0 -22 -9
-35 -19 -13 -10 -31 -22 -39 -27 -8 -5 -12 -12 -9 -15 4 -3 34 8 68 25 34 17
66 28 71 25 13 -8 50 -83 79 -160 13 -33 32 -79 42 -103 11 -24 27 -64 35 -90
9 -26 22 -54 30 -63 8 -9 11 -18 8 -22 -3 -3 1 -16 10 -29 9 -12 16 -31 16
-41 0 -22 42 -117 52 -117 6 0 48 -120 68 -198 6 -23 14 -41 18 -38 9 5 9
-130 0 -140 -5 -4 -8 -16 -8 -26 0 -11 -7 -18 -19 -18 -11 0 -23 -4 -26 -10
-10 -17 37 -11 59 7 12 10 18 14 14 10 -3 -5 -2 -22 2 -38 5 -16 5 -29 0 -29
-4 0 -11 -7 -14 -16 -3 -8 -2 -12 3 -9 5 3 12 1 15 -3 3 -5 -6 -15 -19 -22
-14 -7 -25 -17 -25 -22 0 -5 -10 -6 -21 -3 -15 5 -19 4 -15 -4 4 -6 -4 -16
-18 -23 -14 -6 -26 -15 -26 -20 0 -5 -4 -7 -9 -4 -5 3 -14 -1 -21 -9 -7 -8
-17 -12 -23 -8 -6 4 -8 0 -5 -9 6 -14 -28 -45 -44 -40 -4 1 -16 -10 -27 -25
l-21 -26 0 24 c-1 18 -4 15 -15 -15 -7 -21 -19 -42 -25 -46 -7 -4 -11 -11 -10
-16 1 -5 -3 -10 -8 -12 -13 -4 -10 16 8 48 8 14 33 64 57 111 42 84 77 129 90
116 3 -4 12 2 20 13 14 20 40 29 28 9 -5 -6 0 -6 12 1 20 13 28 46 12 55 -5 4
-12 0 -15 -9 -3 -8 -12 -12 -20 -9 -7 3 -17 -2 -20 -11 -3 -9 -11 -16 -16 -16
-6 0 -17 -8 -24 -17 -13 -17 -14 -17 -7 2 4 11 -8 3 -28 -20 -18 -21 -42 -47
-51 -57 -10 -10 -18 -24 -18 -31 0 -13 -18 -39 -57 -84 -13 -14 -20 -31 -16
-37 3 -6 3 -8 -2 -4 -4 4 -13 4 -19 -1 -18 -14 -48 -22 -41 -11 8 13 -1 13
-25 0 -11 -6 -17 -17 -14 -25 4 -9 0 -15 -10 -15 -9 0 -16 -4 -16 -9 0 -4 -11
-6 -25 -3 -14 2 -22 8 -19 13 3 5 0 9 -5 9 -6 0 -11 -4 -11 -10 0 -5 -5 -10
-11 -10 -5 0 -7 5 -4 10 6 9 -8 14 -27 11 -5 0 -8 6 -8 15 0 9 -5 12 -12 8 -7
-5 -9 -2 -5 9 4 11 2 14 -9 10 -7 -3 -14 0 -14 6 0 21 -2 26 -12 38 -5 7 -6
18 -2 24 4 8 3 9 -4 5 -7 -4 -12 -3 -12 3 0 5 6 12 13 14 8 4 9 8 1 14 -14 11
-13 63 1 63 6 0 16 -5 22 -11 7 -7 13 -7 17 -1 3 6 -9 16 -28 23 -34 12 -53
36 -40 48 4 3 9 0 11 -6 3 -7 9 -13 14 -13 4 0 6 7 3 15 -4 8 -1 15 7 15 7 0
9 3 6 6 -11 12 13 44 33 44 11 0 20 7 20 15 0 8 7 15 15 15 8 0 15 4 15 9 0 5
12 14 28 20 47 20 82 42 82 52 0 5 6 9 14 9 17 0 60 64 76 112 6 21 13 73 14
115 4 81 20 157 39 183 7 9 4 8 -9 -3 -11 -9 -23 -15 -25 -13 -2 2 -5 -5 -6
-17 -7 -88 -35 -229 -52 -262 -14 -28 -20 -34 -21 -20 0 16 -3 15 -15 -9 -8
-15 -12 -32 -9 -37 3 -5 -1 -9 -8 -9 -7 0 -26 -11 -42 -25 -22 -19 -32 -22
-38 -13 -5 9 -8 8 -8 -5 0 -10 -12 -22 -26 -27 -33 -13 -37 -13 -28 1 5 8 -1
10 -19 5 -36 -9 -55 1 -62 35 -4 16 -11 29 -16 29 -5 0 -9 9 -9 20 0 15 -7 20
-25 20 -28 0 -58 41 -35 48 9 3 9 6 -1 13 -8 5 -9 9 -3 9 17 0 -7 82 -30 101
-13 10 -20 29 -20 55 -1 21 -8 47 -17 57 -10 10 -20 38 -23 61 -4 28 -16 51
-31 64 -14 12 -25 26 -25 32 0 5 -10 21 -22 36 -13 14 -25 35 -28 46 -3 11
-16 28 -30 37 -14 9 -21 11 -16 4 4 -8 2 -13 -4 -13 -6 0 -15 11 -22 25 -6 13
-15 22 -21 18 -6 -4 -8 2 -5 15 4 12 2 22 -3 22 -5 0 -12 8 -16 18 -3 9 -30
40 -60 69 -29 28 -48 53 -41 55 23 8 -4 28 -39 28 -33 0 -35 1 -29 28 4 15 7
33 8 40 1 6 7 12 13 12 19 0 55 120 55 183 0 31 -4 57 -10 57 -5 0 -10 6 -10
13 0 18 -39 69 -78 102 -29 24 -33 25 -30 9 4 -23 22 -44 38 -44 6 0 8 -5 5
-10 -4 -6 -2 -16 3 -23 14 -18 25 -104 13 -111 -5 -4 -8 -17 -5 -30 3 -16 -5
-35 -21 -54 -14 -16 -25 -35 -25 -41 0 -16 -53 -36 -58 -22 -2 6 -10 11 -18
11 -8 0 -14 9 -14 19 0 10 -7 22 -16 25 -9 3 -14 13 -10 21 6 17 -19 45 -40
45 -8 0 -14 4 -14 10 0 5 -7 7 -15 4 -11 -5 -15 1 -15 25 0 22 -5 31 -17 31
-9 0 -13 -3 -10 -7 4 -3 2 -12 -4 -19 -18 -22 -49 1 -49 36 0 21 -4 28 -14 24
-8 -3 -17 -1 -21 5 -4 8 -12 8 -26 1 -16 -9 -19 -7 -19 10 0 11 -3 19 -7 19
-21 -3 -34 2 -28 11 4 6 11 7 17 4 6 -4 8 -2 4 4 -10 16 13 25 29 12 11 -9 15
-9 15 -1 0 6 -11 16 -24 21 -13 5 -35 24 -49 42 -28 37 -48 106 -27 93 8 -5
11 -4 6 3 -4 6 -13 9 -20 6 -18 -7 -39 21 -38 54 0 15 -5 32 -10 39 -6 7 -10
28 -11 48 -1 19 -4 35 -7 35 -3 0 -6 9 -6 19 0 11 4 17 8 15 4 -3 8 2 8 10 0
10 6 13 15 10 8 -4 15 -1 15 5 0 6 -8 11 -17 11 -15 0 -14 2 2 14 11 8 22 13
25 11 3 -2 7 8 8 23 l2 27 -26 -30 c-18 -21 -27 -26 -33 -17 -6 10 -15 10 -37
2 l-29 -10 25 19 c16 13 29 16 35 10 14 -14 25 -11 25 9 0 9 -9 23 -20 29 -16
11 -21 10 -29 -5 -5 -9 -12 -14 -16 -10 -4 3 5 24 19 47 14 22 26 50 26 61 0
11 4 20 9 20 5 0 3 13 -5 29 -20 41 -2 73 36 64 14 -3 27 -10 28 -15z m-1757
-24 c6 -8 8 -14 3 -14 -5 0 -2 -5 6 -10 13 -8 12 -10 -3 -10 -11 0 -17 -6 -15
-17 2 -12 -3 -18 -15 -17 -11 1 -16 -4 -15 -15 2 -10 -5 -17 -20 -19 -12 -2
-20 -8 -17 -13 4 -5 2 -9 -3 -9 -5 0 -7 -15 -5 -32 2 -18 0 -27 -3 -20 -9 19
-23 14 -21 -8 1 -16 9 -20 37 -21 l35 -1 -35 -15 c-40 -17 -51 -30 -42 -52 5
-14 3 -14 -10 -3 -11 9 -18 10 -23 2 -3 -6 -11 -7 -17 -4 -6 4 -8 2 -5 -4 10
-15 -2 -39 -21 -47 -14 -5 -15 -4 -4 6 26 27 10 29 -23 3 -30 -23 -39 -25 -59
-16 -22 10 -24 9 -21 -13 1 -14 8 -31 14 -39 7 -8 14 -25 16 -38 3 -13 8 -41
13 -63 6 -27 5 -45 -2 -53 -37 -38 -40 -44 -19 -38 46 15 9 -55 -71 -132 -21
-20 -50 -55 -64 -76 -23 -37 -25 -39 -38 -21 -12 17 -14 11 -14 -51 0 -38 -4
-75 -9 -83 -6 -10 -9 -2 -9 23 0 21 -3 40 -6 43 -3 4 -6 -1 -6 -10 0 -9 -7
-17 -15 -17 -9 0 -15 -9 -15 -25 0 -15 -6 -25 -14 -25 -14 0 -26 -21 -26 -47
0 -13 3 -13 15 -3 27 22 24 6 -4 -25 -48 -54 -81 -75 -110 -70 -19 4 -21 3 -8
-3 18 -8 18 -9 1 -22 -10 -8 -15 -10 -11 -4 10 17 -29 24 -48 10 -16 -11 -15
-13 1 -27 15 -11 16 -12 9 0 -5 10 -4 12 3 7 9 -5 9 -13 1 -27 -10 -19 -9 -20
13 -9 22 11 22 10 -2 -9 -14 -11 -28 -21 -32 -21 -4 0 -5 -6 -2 -14 4 -9 -5
-20 -23 -29 -27 -14 -29 -14 -29 3 0 12 4 16 11 10 6 -5 17 -5 25 0 13 8 12
10 -2 10 -12 0 -15 5 -11 17 6 14 0 15 -44 10 -33 -4 -54 -2 -62 6 -9 9 -11 8
-5 -6 6 -16 4 -17 -22 -5 -16 6 -37 19 -48 27 -17 15 -18 14 -15 -14 3 -23 0
-30 -16 -33 -16 -3 -18 -1 -7 9 20 22 14 29 -18 17 -17 -5 -38 -7 -48 -3 -16
6 -16 7 0 16 10 6 25 9 34 7 9 -2 19 3 21 10 3 6 0 12 -6 12 -6 0 -11 7 -11
15 0 8 -3 15 -7 16 -38 3 -59 14 -83 39 -15 17 -33 30 -39 30 -7 0 -9 9 -5 24
4 16 1 25 -12 30 -22 8 -33 -2 -14 -14 8 -5 12 -12 8 -15 -7 -7 -50 18 -85 49
-26 22 -30 46 -9 46 9 0 12 7 9 19 -3 11 3 29 14 40 10 12 28 33 40 46 12 14
20 25 17 25 -3 0 4 12 15 26 12 15 21 33 21 40 0 8 5 14 11 14 5 0 7 5 3 12
-4 6 -3 8 4 4 6 -3 23 11 39 34 15 22 32 38 37 37 5 -2 22 10 38 25 40 39 46
35 13 -8 -15 -19 -25 -37 -23 -40 7 -6 51 58 51 75 0 23 39 51 62 46 11 -3 14
-2 7 1 -10 5 -10 9 -1 20 14 17 33 19 24 2 -6 -12 66 63 91 93 11 14 73 67
109 94 14 10 16 14 6 15 -8 0 0 11 19 25 18 14 36 22 39 19 3 -3 -3 -12 -13
-20 -15 -11 -16 -14 -5 -14 9 0 22 11 29 25 7 14 17 26 22 26 4 1 13 3 18 4 6
1 15 3 21 4 5 0 7 6 4 11 -3 6 3 10 13 10 11 0 23 7 26 16 4 9 9 14 13 11 3
-4 14 -2 23 3 14 8 20 4 31 -22 7 -17 29 -50 48 -74 20 -24 43 -53 51 -64 15
-21 15 -21 15 12 0 35 -39 98 -62 98 -7 0 -10 7 -6 18 3 9 2 13 -2 9 -5 -4
-17 7 -26 25 -16 31 -16 33 5 49 11 9 43 26 69 38 38 17 52 20 62 11 11 -9 22
-9 45 1 16 8 30 17 30 21 0 5 9 8 19 8 10 0 38 9 62 20 24 11 38 20 30 20 -8
0 -4 7 10 19 27 22 64 24 80 5z m189 1 c-7 -9 -15 -13 -17 -11 -7 7 7 26 19
26 6 0 6 -6 -2 -15z m-750 -219 c0 -2 -7 -7 -16 -10 -8 -3 -12 -2 -9 4 6 10
25 14 25 6z m1447 -83 c-3 -10 -5 -4 -5 12 0 17 2 24 5 18 2 -7 2 -21 0 -30z
m793 -98 c0 -8 -2 -15 -4 -15 -2 0 -6 7 -10 15 -3 8 -1 15 4 15 6 0 10 -7 10
-15z m1098 -89 c12 -11 22 -28 22 -38 0 -17 -1 -17 -18 0 -9 9 -28 33 -42 52
-25 37 -16 33 38 -14z m-2008 -136 c0 -5 -5 -10 -11 -10 -5 0 -7 5 -4 10 3 6
8 10 11 10 2 0 4 -4 4 -10z m-75 -10 c-11 -5 -27 -9 -35 -9 -9 0 -8 4 5 9 11
5 27 9 35 9 9 0 8 -4 -5 -9z m315 6 c0 -2 -7 -7 -16 -10 -8 -3 -12 -2 -9 4 6
10 25 14 25 6z m810 -17 c0 -5 -4 -9 -10 -9 -5 0 -10 7 -10 16 0 8 5 12 10 9
6 -3 10 -10 10 -16z m-1265 1 c-3 -5 -12 -10 -18 -10 -7 0 -6 4 3 10 19 12 23
12 15 0z m82 -6 c-3 -3 -12 -4 -19 -1 -8 3 -5 6 6 6 11 1 17 -2 13 -5z m696
-31 c-7 -2 -21 -2 -30 0 -10 3 -4 5 12 5 17 0 24 -2 18 -5z m-1607 -32 c-17
-19 -17 -19 3 -14 12 3 21 1 21 -6 0 -10 -14 -15 -32 -12 -5 0 -8 -8 -8 -19 0
-11 -5 -20 -11 -20 -6 0 -19 -10 -30 -22 -17 -21 -19 -21 -13 -3 6 20 5 20
-10 1 -13 -17 -16 -17 -16 -4 0 9 11 25 25 36 14 11 25 25 25 30 0 10 47 52
58 52 3 0 -3 -9 -12 -19z m652 1 c5 -17 -25 -15 -31 2 -4 9 0 13 11 12 9 -2
18 -8 20 -14z m-83 -32 c3 -5 1 -10 -4 -10 -6 0 -11 5 -11 10 0 6 2 10 4 10 3
0 8 -4 11 -10z m1340 -10 c-3 -5 -11 -10 -16 -10 -6 0 -7 5 -4 10 3 6 11 10
16 10 6 0 7 -4 4 -10z m445 -214 c0 -3 -4 -8 -10 -11 -5 -3 -10 -1 -10 4 0 6
5 11 10 11 6 0 10 -2 10 -4z m40 -6 c0 -5 -2 -10 -4 -10 -3 0 -8 5 -11 10 -3
6 -1 10 4 10 6 0 11 -4 11 -10z m-3370 -57 c0 -7 7 -13 15 -13 9 0 12 -6 9
-15 -4 -8 -1 -15 5 -15 6 0 27 -16 45 -35 19 -19 39 -35 44 -35 5 0 17 -9 27
-20 16 -18 16 -20 1 -26 -9 -3 -16 -11 -16 -17 0 -7 4 -7 12 1 7 7 16 12 22
12 6 0 5 -5 -2 -12 -18 -18 -15 -33 3 -18 12 10 19 10 27 2 16 -16 45 -15 51
1 3 6 6 2 6 -10 1 -13 -4 -23 -11 -23 -6 0 -9 -3 -5 -6 3 -4 18 3 33 15 32 25
66 29 58 6 -4 -8 -12 -15 -20 -15 -8 0 -14 -4 -14 -10 0 -5 8 -7 18 -3 14 5
15 3 5 -8 -10 -9 -16 -10 -24 -2 -8 8 -20 8 -43 -2 -17 -7 -36 -11 -42 -8 -6
2 -16 -8 -22 -22 -15 -32 -15 -36 -1 -32 6 1 14 -4 17 -12 3 -8 0 -11 -7 -7
-6 4 -12 2 -12 -3 -1 -6 -3 -15 -4 -21 -1 -5 -3 -19 -4 -31 0 -11 -5 -18 -9
-15 -4 2 -9 -4 -9 -15 -1 -15 3 -19 18 -14 11 4 19 2 19 -5 0 -6 -4 -9 -9 -5
-5 3 -13 0 -17 -6 -3 -6 -2 -14 4 -18 7 -4 1 -18 -17 -36 -15 -17 -26 -36 -23
-43 4 -13 -66 -112 -80 -112 -4 0 -8 -11 -8 -24 0 -14 -5 -28 -10 -31 -6 -4
-8 10 -6 37 3 24 5 46 5 50 1 4 9 5 19 2 14 -5 15 -4 2 5 -33 24 -60 -59 -50
-153 2 -25 29 -66 58 -89 14 -12 21 -26 18 -41 -4 -20 0 -22 32 -21 21 1 52
-5 71 -12 29 -12 33 -18 29 -43 -3 -16 0 -26 5 -23 5 3 6 -8 2 -28 -4 -25 -3
-30 4 -19 7 9 11 10 11 3 0 -7 -7 -16 -16 -21 -9 -5 -16 -21 -16 -36 0 -19
-14 -42 -39 -69 -22 -22 -39 -46 -39 -54 0 -7 -5 -13 -11 -13 -5 0 -7 5 -3 11
4 7 1 10 -7 7 -7 -2 -16 -18 -21 -34 -7 -27 -6 -28 7 -10 12 16 18 17 27 8 9
-9 9 -12 -1 -12 -7 0 -9 -5 -6 -10 4 -6 1 -9 -6 -8 -7 2 -13 -1 -14 -7 -1 -19
-16 -35 -27 -29 -7 5 -8 2 -4 -5 5 -8 0 -14 -14 -18 -14 -4 -18 -8 -10 -13 8
-5 2 -10 -14 -14 -14 -3 -26 -11 -26 -17 0 -7 -6 -6 -17 2 -11 10 -14 10 -9 2
4 -8 1 -13 -8 -13 -9 0 -16 6 -17 13 0 9 -2 9 -6 -1 -2 -6 -9 -10 -14 -6 -5 3
-9 1 -9 -4 0 -6 -17 -13 -37 -17 -29 -5 -40 -3 -50 11 -7 10 -13 14 -13 10 0
-5 -7 -3 -15 4 -9 7 -13 21 -9 35 3 13 1 26 -5 29 -5 4 -8 13 -5 20 3 7 -2 21
-11 30 -9 9 -13 21 -9 27 4 7 3 9 -4 5 -6 -3 -15 2 -21 11 -10 17 -10 17 -11
0 0 -10 -4 -15 -10 -12 -5 3 -10 16 -10 27 0 12 -3 18 -6 15 -4 -4 -20 4 -36
18 -16 13 -35 22 -44 18 -8 -3 -23 2 -33 11 -10 9 -25 16 -32 14 -10 -2 -14 6
-13 27 2 58 26 211 46 290 11 44 25 100 31 125 6 25 14 47 17 50 14 11 16 46
4 57 -7 7 -10 22 -6 35 5 19 7 20 10 6 6 -32 22 -19 22 20 0 29 3 34 11 22 8
-12 9 -11 5 6 -4 11 1 29 9 40 8 10 15 26 15 35 0 20 30 80 30 62 0 -7 5 -13
10 -13 6 0 8 11 4 25 -3 14 -3 33 2 42 4 10 8 20 9 23 5 15 28 60 49 95 13 22
36 64 50 92 15 29 32 52 39 50 6 -1 12 4 13 11 1 6 2 16 3 21 0 4 10 20 22 35
20 25 21 25 44 8 14 -9 25 -23 25 -29z m4513 -168 c4 -8 2 -17 -3 -20 -6 -4
-10 3 -10 14 0 25 6 27 13 6z m-2396 -171 c-3 -3 -12 -4 -19 -1 -8 3 -5 6 6 6
11 1 17 -2 13 -5z m-1897 -24 c0 -5 -2 -10 -4 -10 -3 0 -8 5 -11 10 -3 6 -1
10 4 10 6 0 11 -4 11 -10z m-25 -40 c3 -5 1 -10 -4 -10 -6 0 -11 5 -11 10 0 6
2 10 4 10 3 0 8 -4 11 -10z m1755 -30 c0 -5 -2 -10 -4 -10 -3 0 -8 5 -11 10
-3 6 -1 10 4 10 6 0 11 -4 11 -10z m520 -50 c0 -5 -5 -10 -11 -10 -5 0 -7 5
-4 10 3 6 8 10 11 10 2 0 4 -4 4 -10z m-2840 -4 c0 -2 -7 -7 -16 -10 -8 -3
-12 -2 -9 4 6 10 25 14 25 6z m1937 -2 c-3 -3 -12 -4 -19 -1 -8 3 -5 6 6 6 11
1 17 -2 13 -5z m98 -14 c3 -6 -1 -7 -9 -4 -18 7 -21 14 -7 14 6 0 13 -4 16
-10z m12 -26 c-3 -3 -12 -4 -19 -1 -8 3 -5 6 6 6 11 1 17 -2 13 -5z m290 -39
c-15 -14 -37 -25 -48 -25 -11 0 -17 -4 -14 -10 3 -5 2 -10 -3 -10 -6 0 -13 7
-16 16 -3 8 -10 12 -16 9 -6 -4 -23 -8 -38 -10 -15 -2 -22 -2 -15 1 7 3 10 11
7 19 -3 7 0 16 6 20 6 3 9 1 8 -5 -2 -7 5 -14 15 -15 9 -2 17 1 17 6 0 5 9 4
20 -3 17 -11 22 -10 29 1 5 7 15 11 22 9 8 -3 20 1 27 9 7 7 16 13 20 13 4 0
-6 -12 -21 -25z m103 10 c0 -8 -4 -15 -10 -15 -5 0 -7 7 -4 15 4 8 8 15 10 15
2 0 4 -7 4 -15z m87 -32 c-3 -10 -5 -2 -5 17 0 19 2 27 5 18 2 -10 2 -26 0
-35z m26 22 c-3 -9 -8 -14 -10 -11 -3 3 -2 9 2 15 9 16 15 13 8 -4z m96 -2
c-3 -38 1 -42 39 -38 35 4 34 4 -8 -7 l-45 -12 35 -6 c23 -3 30 -7 19 -12 -8
-3 -27 -4 -41 -1 -14 3 -29 0 -32 -6 -12 -19 -22 -12 -23 17 -1 23 -1 24 7 7
8 -19 9 -19 9 3 1 12 5 22 11 22 5 0 12 11 16 25 7 29 16 34 13 8z m-610 -9
c13 -11 -8 -10 -34 2 l-30 13 30 -6 c17 -3 32 -7 34 -9z m542 -7 c-6 -8 -8
-17 -4 -20 3 -4 1 -7 -5 -7 -14 0 -14 2 -6 24 3 9 11 16 16 16 7 0 6 -5 -1
-13z m156 -19 c-3 -7 -5 -2 -5 12 0 14 2 19 5 13 2 -7 2 -19 0 -25z m-782 12
c3 -5 1 -10 -4 -10 -6 0 -11 5 -11 10 0 6 2 10 4 10 3 0 8 -4 11 -10z m445
-14 c0 -2 -11 -3 -25 -3 -24 0 -31 7 -19 20 6 6 44 -9 44 -17z m84 9 c-23 -17
-44 -19 -44 -4 0 6 7 9 15 6 8 -4 17 -2 20 3 4 6 11 10 18 10 6 0 2 -7 -9 -15z
m-462 -6 c2 -5 10 -11 18 -12 8 -2 21 -7 29 -11 11 -7 13 -5 9 5 -5 12 3 15
36 13 22 -1 59 -3 81 -3 30 -1 36 -4 25 -11 -8 -5 -26 -10 -40 -11 -14 -1 -18
-3 -9 -6 8 -2 41 0 72 5 44 7 55 6 47 -3 -5 -7 -22 -12 -37 -13 -67 -2 -144
-12 -160 -21 -23 -13 -143 -41 -169 -40 -22 1 11 10 104 30 34 7 62 16 62 20
0 16 -32 17 -67 2 -50 -20 -97 -28 -88 -14 3 6 12 11 18 11 29 0 87 22 82 31
-4 5 -12 6 -18 3 -7 -4 -9 -4 -5 1 4 4 3 14 -3 22 -8 8 -8 13 -1 13 6 0 12 -5
14 -11z m787 -5 c2 -2 -7 -4 -22 -4 -14 0 -29 5 -32 10 -6 10 42 4 54 -6z
m339 -9 c-3 -3 -9 2 -12 12 -6 14 -5 15 5 6 7 -7 10 -15 7 -18z m-808 -9 c0
-2 -7 -7 -16 -10 -8 -3 -12 -2 -9 4 6 10 25 14 25 6z m130 -17 c0 -5 -9 -9
-20 -9 -13 0 -18 5 -14 14 6 15 34 11 34 -5z m-2018 -11 c-7 -7 -12 -8 -12 -2
0 14 12 26 19 19 2 -3 -1 -11 -7 -17z m2053 12 c3 -5 1 -10 -4 -10 -6 0 -11 5
-11 10 0 6 2 10 4 10 3 0 8 -4 11 -10z m-925 -10 c0 -5 -2 -10 -4 -10 -3 0 -8
5 -11 10 -3 6 -1 10 4 10 6 0 11 -4 11 -10z m826 1 c-3 -5 -15 -7 -26 -4 -28
7 -25 13 6 13 14 0 23 -4 20 -9z m549 -1 c3 -6 -1 -7 -9 -4 -18 7 -21 14 -7
14 6 0 13 -4 16 -10z m165 6 c0 -2 -11 -6 -25 -8 -13 -3 -22 -1 -19 3 5 9 44
13 44 5z m-460 -22 c0 -2 -7 -4 -15 -4 -8 0 -15 4 -15 10 0 5 7 7 15 4 8 -4
15 -8 15 -10z m-1043 0 c-3 -3 -12 -4 -19 -1 -8 3 -5 6 6 6 11 1 17 -2 13 -5z
m48 -13 c-3 -6 -11 -8 -17 -5 -6 4 -5 9 3 15 16 10 23 4 14 -10z m685 15 c0
-2 -7 -6 -15 -10 -8 -3 -15 -1 -15 4 0 6 7 10 15 10 8 0 15 -2 15 -4z m404
-25 c-2 -3 -12 3 -22 13 -16 17 -16 18 5 5 12 -7 20 -15 17 -18z m-2307 13
c-3 -3 -12 -4 -19 -1 -8 3 -5 6 6 6 11 1 17 -2 13 -5z m2073 -4 c0 -5 -4 -10
-10 -10 -5 0 -10 5 -10 10 0 6 5 10 10 10 6 0 10 -4 10 -10z m90 0 c-8 -5 -19
-10 -25 -10 -5 0 -3 5 5 10 8 5 20 10 25 10 6 0 3 -5 -5 -10z m-702 -11 c-10
-5 -15 -17 -12 -27 5 -14 4 -15 -5 -2 -8 12 -13 12 -23 2 -6 -6 -23 -12 -37
-12 -22 1 -19 3 14 15 22 8 41 15 43 15 2 0 0 5 -3 10 -3 6 4 10 17 10 20 -1
21 -2 6 -11z m-1445 -24 c-7 -21 -13 -19 -13 6 0 11 4 18 10 14 5 -3 7 -12 3
-20z m1704 19 c-3 -3 -12 -4 -19 -1 -8 3 -5 6 6 6 11 1 17 -2 13 -5z m-184
-31 c-7 -2 -19 -2 -25 0 -7 3 -2 5 12 5 14 0 19 -2 13 -5z m1181 -27 c-4 -9
16 -26 58 -50 35 -20 59 -36 54 -36 -5 0 -29 11 -53 25 -23 14 -43 22 -43 18
-1 -4 -10 3 -21 16 -15 19 -17 26 -7 32 17 12 18 11 12 -5z m-1414 -76 c0 -5
-7 -10 -16 -10 -8 0 -12 5 -9 10 3 6 10 10 16 10 5 0 9 -4 9 -10z m-65 -30
c-3 -5 -12 -10 -18 -10 -7 0 -6 4 3 10 19 12 23 12 15 0z m-75 -10 c-20 -13
-33 -13 -25 0 3 6 14 10 23 10 15 0 15 -2 2 -10z m-61 -23 c-27 -21 -79 -46
-79 -38 0 6 5 11 11 11 6 0 17 7 25 15 9 8 23 15 31 15 9 0 14 -1 12 -3z m-99
-27 c-24 -15 -36 -11 -14 4 10 8 21 12 24 10 2 -3 -2 -9 -10 -14z m2059 -78
c33 -32 61 -62 61 -67 0 -5 -15 7 -32 26 -18 19 -51 49 -73 67 -22 18 -35 32
-28 32 6 0 38 -26 72 -58z m161 23 c0 -5 -5 -3 -10 5 -5 8 -10 20 -10 25 0 6
5 3 10 -5 5 -8 10 -19 10 -25z m-2300 -19 c0 -3 -15 -14 -32 -26 l-33 -22 28
26 c27 25 37 31 37 22z m1205 -46 c-3 -5 -11 -10 -16 -10 -6 0 -7 5 -4 10 3 6
11 10 16 10 6 0 7 -4 4 -10z m1880 -10 c-3 -5 -12 -10 -18 -10 -7 0 -6 4 3 10
19 12 23 12 15 0z m-2025 -36 c0 -8 -19 -13 -24 -6 -3 5 1 9 9 9 8 0 15 -2 15
-3z m94 -26 c11 46 25 40 16 -7 -5 -31 -4 -38 7 -34 9 4 11 0 7 -11 -7 -18 15
-19 29 -1 6 6 10 5 14 -3 6 -16 40 26 35 43 -2 6 2 5 8 -1 9 -9 9 -17 1 -32
-14 -27 -14 -33 2 -31 21 3 62 -17 49 -25 -6 -4 -9 -13 -5 -21 3 -8 0 -15 -6
-15 -6 0 -11 -8 -11 -17 0 -15 4 -14 19 6 10 13 23 21 30 17 6 -4 11 -2 11 3
0 6 5 11 10 11 19 0 10 -18 -30 -59 -22 -22 -36 -41 -31 -41 6 0 13 5 16 10
10 17 25 11 18 -7 -6 -16 -3 -15 17 2 l23 20 -17 -32 c-16 -32 -16 -33 4 -33
11 0 20 -4 20 -10 0 -5 -7 -6 -17 -3 -11 4 -14 3 -9 -5 4 -7 1 -15 -8 -18 -9
-3 -16 -11 -16 -17 0 -5 8 -3 18 6 10 10 29 17 43 16 l24 0 -22 -9 c-33 -13
-28 -21 7 -13 18 3 30 1 30 -5 0 -6 6 -12 13 -15 6 -2 3 -2 -8 0 -44 9 -49 8
-48 -14 1 -41 3 -43 26 -44 17 -1 18 -2 4 -6 -10 -3 -24 1 -32 7 -10 8 -15 9
-15 2 0 -6 5 -14 12 -18 8 -5 6 -11 -6 -20 -16 -11 -15 -13 6 -28 12 -9 29
-16 37 -16 8 0 12 -3 8 -6 -3 -4 -20 -2 -36 4 -19 7 -31 7 -31 1 0 -5 3 -9 8
-9 4 -1 21 -12 37 -27 l30 -25 -36 21 c-40 23 -54 27 -44 11 3 -5 1 -10 -5
-10 -7 0 -9 -7 -6 -17 4 -9 1 -20 -6 -24 -9 -6 -4 -18 22 -46 19 -21 25 -29
13 -19 -32 26 -29 8 4 -26 15 -15 22 -28 16 -28 -5 0 -18 9 -28 20 -10 11 -20
18 -23 15 -7 -6 40 -44 55 -45 6 0 15 -5 19 -12 4 -7 3 -8 -4 -4 -21 13 -13
-7 14 -35 19 -20 24 -31 17 -44 -9 -15 -11 -15 -22 -1 -9 11 -10 16 -2 16 20
0 11 19 -16 34 -16 8 -24 15 -19 16 9 0 -62 70 -71 70 -2 0 5 -13 17 -30 12
-16 16 -30 11 -30 -6 0 -21 15 -32 33 -18 27 -20 28 -14 7 4 -14 17 -34 29
-45 12 -11 22 -30 23 -43 2 -39 3 -42 14 -39 6 1 18 -9 26 -23 l15 -25 -22 25
c-21 24 -22 20 -3 -27 5 -12 -1 -10 -25 7 -18 13 -32 28 -32 33 0 5 7 4 15 -3
8 -7 15 -8 15 -2 0 5 -7 15 -15 22 -11 9 -15 9 -15 1 0 -7 -5 -9 -10 -6 -6 4
-7 11 -4 17 4 5 -4 5 -16 -2 -21 -11 -22 -10 -17 9 3 14 0 21 -9 21 -14 0 -10
-23 8 -46 4 -6 5 -20 1 -29 -4 -13 -3 -16 5 -11 8 5 10 2 6 -8 -7 -18 -24 -12
-24 9 0 7 -3 15 -7 18 -5 2 -2 2 5 1 6 -2 12 1 12 6 0 11 -9 13 -51 12 -19 0
-29 7 -37 26 l-12 27 5 -26 c3 -14 1 -39 -4 -56 -6 -21 -5 -35 2 -42 8 -8 6
-11 -9 -12 -10 0 -14 -3 -7 -5 9 -4 8 -17 -3 -52 -16 -56 -18 -75 -4 -67 6 3
10 1 10 -4 0 -18 -19 -12 -30 9 -7 14 -8 26 0 39 7 14 7 20 -2 23 -7 3 -9 12
-5 22 4 9 11 15 16 11 6 -3 6 7 0 27 -5 18 -9 35 -9 38 0 3 -5 -2 -10 -10 -8
-12 -10 -9 -10 12 0 15 5 30 10 33 17 10 11 34 -10 45 -19 10 -20 9 -14 -15 4
-16 0 -34 -12 -53 -10 -15 -17 -34 -16 -42 2 -10 -1 -10 -9 3 -8 13 -8 22 1
32 6 8 9 19 6 24 -4 5 -2 12 4 16 12 7 13 35 2 35 -5 0 -14 -11 -20 -25 -8
-17 -8 -25 -1 -25 6 0 7 -5 4 -10 -4 -6 -11 -7 -17 -4 -7 4 -8 2 -4 -5 4 -6
-3 -24 -17 -40 l-24 -29 1 28 c1 15 6 26 11 24 6 -2 11 7 11 21 1 14 -2 22 -8
19 -6 -4 -8 2 -3 15 3 11 4 21 1 21 -7 0 -34 -63 -52 -122 -8 -26 -20 -50 -26
-54 -6 -4 -8 -3 -5 3 3 5 9 25 12 44 3 19 10 38 16 44 5 5 9 15 9 23 0 12 -3
12 -15 2 -8 -7 -15 -18 -15 -26 0 -7 -5 -16 -11 -20 -15 -9 -2 37 15 51 6 6
16 18 21 27 6 9 24 36 42 61 17 25 25 43 17 40 -7 -3 -22 -19 -33 -37 -11 -17
-32 -43 -48 -56 -15 -14 -21 -17 -14 -7 25 31 2 31 -28 -1 -17 -17 -40 -36
-53 -42 -13 -7 0 9 27 34 28 25 56 46 63 46 7 0 10 5 7 11 -4 6 3 21 16 35 12
13 20 27 17 30 -4 3 -19 -9 -35 -28 -45 -53 -95 -99 -101 -94 -7 8 19 37 28
31 5 -3 11 -1 15 5 3 5 -1 10 -10 10 -9 0 -13 5 -10 11 4 6 14 8 22 5 8 -3 11
-1 8 4 -4 6 4 19 17 30 13 11 19 19 14 20 -5 0 -3 7 4 15 11 14 10 14 -14 6
-14 -6 -26 -7 -26 -3 0 4 -5 0 -10 -8 -5 -8 -7 -23 -4 -32 3 -10 0 -18 -6 -18
-6 0 -8 5 -5 10 9 14 -8 12 -25 -2 -8 -7 -6 -3 5 10 15 18 16 25 5 35 -10 9
-11 9 -6 0 4 -8 1 -13 -8 -13 -9 0 -16 -6 -16 -14 0 -15 -39 -66 -40 -52 0 5
6 17 14 25 7 9 17 27 21 39 6 22 5 23 -14 13 -12 -7 -21 -18 -21 -26 0 -8 -4
-15 -10 -15 -10 0 8 49 19 51 3 1 15 3 26 4 12 1 32 8 45 16 14 7 30 13 35 14
17 0 57 26 51 32 -3 3 -17 -2 -31 -11 -14 -9 -25 -14 -25 -10 0 3 -12 -1 -26
-11 -14 -9 -28 -14 -30 -12 -6 6 50 47 64 47 5 0 15 7 22 15 7 8 9 15 6 15
-13 0 -71 -33 -99 -56 -16 -13 -34 -24 -40 -24 -7 0 3 10 21 21 17 12 32 25
32 29 0 11 -67 -5 -86 -20 -8 -7 -17 -10 -21 -7 -3 4 2 10 12 13 15 6 15 9 -6
21 -18 11 -19 13 -4 8 23 -8 25 -8 47 -6 13 1 14 5 5 25 -7 13 -16 22 -21 19
-5 -4 -6 -1 -2 5 4 7 2 12 -5 12 -10 0 -10 3 0 13 11 9 14 9 18 0 3 -8 15 -11
31 -7 26 5 26 5 8 -10 -18 -14 -18 -16 -2 -16 18 0 76 27 76 35 0 3 -12 2 -26
-1 -16 -4 -25 -3 -21 3 9 15 -9 37 -24 27 -16 -10 -59 -12 -53 -3 2 4 -2 10
-8 12 -7 3 1 3 17 1 17 -3 48 2 70 11 l40 15 -48 -5 c-30 -3 -46 -1 -42 5 3 6
-5 10 -19 10 -14 0 -28 -4 -31 -10 -9 -15 -25 -12 -19 4 4 11 -5 14 -41 14
-26 0 -50 3 -53 7 -4 4 31 6 77 4 65 -3 85 -1 89 10 2 8 0 11 -5 8 -5 -3 -15
-1 -23 5 -12 8 -12 9 2 4 10 -3 20 -1 22 3 3 5 17 6 31 3 15 -2 25 0 25 7 0 6
-18 11 -44 11 -25 0 -48 5 -51 11 -10 16 4 24 17 11 13 -13 47 -16 72 -6 20 8
21 24 1 24 -8 0 -15 -5 -15 -12 0 -6 -6 -4 -13 7 -9 11 -19 15 -27 10 -9 -6
-11 -4 -5 4 4 8 18 11 35 7 34 -6 42 1 29 26 -9 17 -8 19 10 13 12 -4 21 -2
21 4 0 15 -36 32 -57 26 -11 -4 -9 -1 4 6 18 9 27 9 48 -5 29 -19 34 -7 6 18
-12 11 -27 15 -39 11 -11 -3 -23 -2 -26 4 -9 15 22 21 50 10 37 -14 42 -3 11
25 -16 15 -22 26 -14 29 6 2 20 -6 30 -17 10 -12 15 -15 11 -7 -5 10 -3 13 9
8 10 -4 14 -2 12 6 -3 7 7 20 21 30 l25 19 -7 -26 c-4 -16 -2 -26 4 -26 18 0
23 17 12 44 -6 18 -6 26 1 26 6 0 8 10 5 23 -3 12 -3 16 0 10 9 -21 24 -15 25
10 l1 22 6 -22 c6 -18 10 -19 22 -10 8 7 21 24 27 40 12 26 43 38 43 17 0 -5
-5 -9 -11 -7 -6 1 -14 -4 -16 -11 -4 -10 1 -10 21 -1 14 7 27 19 27 28 1 9 5
0 8 -19 l7 -35 8 33z m59 17 c-3 -9 -8 -14 -10 -11 -3 3 -2 9 2 15 9 16 15 13
8 -4z m-254 -38 c1 -5 -3 -5 -9 -2 -5 3 -10 16 -9 28 0 21 1 21 9 2 5 -11 9
-24 9 -28z m1432 6 c13 -16 12 -17 -3 -4 -10 7 -18 15 -18 17 0 8 8 3 21 -13z
m-1161 -13 c0 -5 -2 -10 -4 -10 -3 0 -8 5 -11 10 -3 6 -1 10 4 10 6 0 11 -4
11 -10z m-336 -26 c5 -14 4 -15 -9 -4 -17 14 -19 20 -6 20 5 0 12 -7 15 -16z
m-2484 -14 c-9 -6 -10 -10 -3 -10 7 0 17 8 22 18 8 13 10 7 11 -28 0 -25 3
-56 7 -69 4 -16 3 -22 -5 -17 -6 3 -13 -6 -17 -24 -8 -35 -6 -46 6 -42 5 1 9
-15 8 -35 0 -31 -2 -34 -9 -18 -9 20 -9 20 -9 0 -1 -11 8 -26 19 -33 15 -9 20
-23 20 -57 0 -39 -4 -47 -24 -55 -30 -11 -40 -26 -22 -33 9 -4 17 1 19 11 3
11 5 8 6 -8 0 -14 -4 -32 -9 -40 -8 -12 -13 -11 -39 8 -16 12 -36 20 -43 19
-7 -2 -10 -2 -5 1 4 2 -4 13 -17 23 -14 11 -38 39 -54 62 -23 35 -28 52 -26
90 2 28 -1 45 -7 42 -5 -4 -9 1 -9 9 0 9 3 16 8 16 4 0 13 14 20 30 8 17 18
28 23 25 5 -4 6 0 3 8 -3 9 7 23 25 37 17 12 31 27 31 33 0 7 -4 6 -10 -3 -5
-8 -10 -10 -10 -4 0 6 8 18 17 25 11 10 14 10 9 2 -13 -22 12 -14 40 12 15 14
30 23 33 20 3 -4 -1 -10 -9 -15z m2550 10 c0 -5 -8 -10 -17 -10 -15 0 -16 2
-3 10 19 12 20 12 20 0z m-2379 -10 c19 -5 49 -22 66 -37 30 -28 73 -97 73
-119 0 -7 7 -14 15 -18 19 -7 20 -56 1 -56 -8 0 -18 -6 -22 -12 -4 -7 -4 -10
1 -6 11 10 38 -29 30 -42 -4 -6 -10 -8 -15 -5 -4 3 -15 -6 -24 -20 -20 -31
-20 -36 1 -28 12 5 9 -3 -9 -22 -15 -16 -25 -32 -23 -35 7 -11 -101 -60 -130
-60 -14 0 -24 4 -21 9 3 5 14 8 24 6 9 -1 11 0 4 2 -8 3 -11 11 -8 19 3 8 1
14 -4 14 -6 0 -9 3 -9 8 3 19 -2 25 -11 12 -9 -14 -7 121 3 305 7 110 1 101
58 85z m2789 -4 c0 -3 -4 -8 -10 -11 -5 -3 -10 -1 -10 4 0 6 5 11 10 11 6 0
10 -2 10 -4z m2515 -12 c6 0 17 -2 25 -2 25 -3 98 -77 106 -106 3 -14 10 -26
14 -26 17 0 21 -75 7 -116 -47 -131 -74 -161 -156 -171 -46 -5 -48 -4 -53 21
-3 14 -2 26 1 26 6 0 5 113 -3 288 -3 77 -2 92 10 88 8 -3 14 -1 14 5 0 6 6 7
13 2 6 -4 17 -8 22 -9z m-4735 -15 c-7 -11 -14 -18 -17 -15 -8 8 5 36 17 36 7
0 7 -6 0 -21z m4609 -201 c0 -157 -2 -209 -11 -200 -7 7 -17 8 -30 1 -12 -6
-18 -6 -18 1 0 5 -6 10 -13 10 -15 0 -136 117 -138 134 -7 57 26 176 49 176 5
0 27 16 51 36 23 20 53 37 67 37 14 0 24 5 24 14 0 8 4 12 9 8 6 -3 10 -96 10
-217z m-2926 195 c-15 -5 -6 -33 16 -52 13 -11 13 -12 1 -9 -19 6 -40 47 -33
64 3 8 10 11 16 7 8 -5 8 -8 0 -10z m1794 11 c-3 -3 -12 -4 -19 -1 -8 3 -5 6
6 6 11 1 17 -2 13 -5z m-1872 -14 c3 -5 1 -10 -4 -10 -6 0 -11 5 -11 10 0 6 2
10 4 10 3 0 8 -4 11 -10z m649 -41 c-10 -12 -18 -24 -17 -28 1 -3 0 -8 -2 -9
-2 -2 -3 3 -1 11 2 16 25 47 34 47 3 0 -3 -9 -14 -21z m-604 -10 c0 -5 -4 -9
-10 -9 -5 0 -10 7 -10 16 0 8 5 12 10 9 6 -3 10 -10 10 -16z m690 17 c0 -2 -7
-7 -16 -10 -8 -3 -12 -2 -9 4 6 10 25 14 25 6z m50 -31 c-7 -8 -17 -15 -23
-15 -6 0 -2 7 9 15 25 19 30 19 14 0z m-754 -22 c-7 -7 -26 7 -26 19 0 6 6 6
15 -2 9 -7 13 -15 11 -17z m2741 5 c-3 -8 -6 -5 -6 6 -1 11 2 17 5 13 3 -3 4
-12 1 -19z m-2780 -10 c-3 -8 -6 -5 -6 6 -1 11 2 17 5 13 3 -3 4 -12 1 -19z
m2656 -28 c-10 -17 -19 -26 -21 -20 -4 10 25 50 35 50 2 0 -4 -14 -14 -30z
m-2613 -12 c0 -6 7 -19 16 -29 15 -17 15 -18 -15 -6 -17 6 -26 14 -20 17 5 4
7 15 3 25 -5 13 -4 16 4 11 7 -4 12 -12 12 -18z m641 3 c-24 -18 -61 -18 -61
1 0 5 8 7 18 4 9 -3 24 -1 32 4 27 17 36 10 11 -9z m114 1 c-3 -3 -11 0 -18 7
-9 10 -8 11 6 5 10 -3 15 -9 12 -12z m1945 14 c0 -3 -4 -8 -10 -11 -5 -3 -10
-1 -10 4 0 6 5 11 10 11 6 0 10 -2 10 -4z m43 -35 c-3 -13 -11 -17 -26 -14
-13 3 -18 1 -12 -4 15 -11 34 -80 30 -104 -2 -10 0 -19 4 -19 5 0 14 -19 20
-43 11 -36 22 -50 71 -83 33 -21 60 -42 60 -46 0 -14 30 -9 30 5 0 8 4 7 10
-3 6 -8 7 -28 4 -44 -4 -19 -3 -26 5 -22 6 4 11 16 11 27 0 10 4 19 9 19 11 0
1 -43 -12 -51 -5 -4 -10 -42 -12 -85 -4 -98 -12 -140 -49 -278 -9 -32 -14 -61
-11 -64 3 -3 -1 -13 -9 -21 -8 -9 -27 -50 -41 -91 -42 -120 -77 -200 -88 -200
-5 0 -6 -7 -3 -16 3 -8 2 -12 -4 -9 -6 3 -10 -1 -10 -10 0 -9 -6 -29 -14 -43
-8 -15 -19 -45 -25 -67 -7 -27 -16 -41 -28 -42 -10 -1 -25 -3 -33 -5 -8 -2
-14 3 -13 10 2 6 0 12 -5 13 -31 3 -48 10 -58 24 -9 12 -13 13 -17 3 -4 -10
-9 -9 -17 5 -6 9 -15 15 -20 12 -9 -6 -38 36 -43 62 -16 80 -20 91 -39 96 -11
3 -18 12 -15 19 6 18 -15 58 -47 87 -14 14 -26 30 -26 37 0 18 -21 29 -29 16
-4 -7 -11 -4 -19 9 -11 17 -10 20 5 17 11 -2 19 4 21 17 4 16 2 17 -10 8 -11
-10 -14 -8 -14 8 0 10 5 19 10 19 5 0 6 3 3 7 -4 3 1 11 9 18 9 6 17 24 17 39
0 24 3 27 23 23 16 -3 24 0 24 10 0 8 -4 11 -10 8 -6 -3 -7 1 -3 10 5 13 8 14
15 3 7 -10 10 -10 19 5 14 23 29 22 29 -4 0 -11 4 -18 9 -15 8 5 25 -29 22
-46 -1 -5 6 -8 14 -8 9 0 15 6 13 14 -2 8 0 15 5 15 22 2 27 -1 27 -18 0 -11
5 -23 11 -27 9 -5 10 1 5 20 -4 15 -2 26 4 26 6 0 6 7 -2 19 -7 11 -16 17 -20
15 -4 -3 -8 2 -8 10 0 8 -8 21 -17 28 -10 7 -25 26 -33 42 -11 21 -16 25 -18
13 -6 -29 -19 -19 -30 23 -8 33 -7 40 4 40 8 0 17 -7 20 -15 8 -19 24 -20 24
-1 0 7 -16 24 -35 37 -40 28 -51 48 -34 63 9 8 10 7 4 -3 -5 -9 -4 -12 2 -8
13 8 5 53 -13 68 -22 18 -17 38 7 32 18 -5 20 -3 14 16 -5 15 -2 21 9 21 9 0
16 5 16 11 0 5 -4 7 -10 4 -5 -3 -10 -1 -10 4 0 6 6 11 13 11 9 0 8 3 -2 9 -7
5 -10 14 -7 20 4 6 12 9 17 6 5 -4 9 0 9 8 0 8 7 17 15 21 8 3 15 12 15 20 0
8 5 18 11 22 7 4 9 0 5 -13 -4 -13 0 -25 11 -34 11 -9 14 -10 9 -1 -4 6 -2 12
3 12 6 0 10 -8 9 -17 -1 -10 0 -29 1 -43 2 -37 19 -6 19 37 0 42 19 68 38 52
8 -6 11 -15 8 -20 -3 -5 0 -9 5 -9 6 0 11 7 11 15 0 8 5 15 11 15 6 0 8 7 5
16 -5 12 -2 15 10 10 8 -3 22 -6 30 -6 9 0 12 -4 9 -10 -3 -5 -1 -10 4 -10 20
0 11 25 -24 64 -32 36 -47 64 -27 52 4 -2 9 5 9 16 2 27 5 28 44 33 18 3 37 9
43 15 8 8 6 9 -6 5 -11 -4 -18 -2 -18 4 0 6 7 11 15 11 20 0 19 17 -2 29 -10
5 -14 13 -9 18 5 4 11 3 13 -4 2 -7 11 -9 19 -6 7 3 11 9 8 14 -3 5 4 9 14 9
15 0 19 -5 15 -19z m657 -15 c0 -3 -4 -8 -10 -11 -5 -3 -10 -1 -10 4 0 6 5 11
10 11 6 0 10 -2 10 -4z m-2680 -10 c0 -3 -4 -8 -10 -11 -5 -3 -10 -1 -10 4 0
6 5 11 10 11 6 0 10 -2 10 -4z m-747 -23 c-7 -2 -19 -2 -25 0 -7 3 -2 5 12 5
14 0 19 -2 13 -5z m-97 -31 c-17 -16 -18 -16 -5 5 7 12 15 20 18 17 3 -2 -3
-12 -13 -22z m-1056 15 c0 -2 -10 -12 -22 -23 l-23 -19 19 23 c18 21 26 27 26
19z m1128 -34 c16 -16 15 -16 -8 -10 -14 4 -29 7 -35 7 -5 0 -3 5 5 10 19 13
19 13 38 -7z m2447 7 c3 -5 -1 -10 -9 -10 -9 0 -16 5 -16 10 0 6 4 10 9 10 6
0 13 -4 16 -10z m-4320 -28 c-8 -2 -15 -10 -15 -19 0 -9 6 -13 15 -9 22 8 31
-22 13 -41 -20 -20 -71 -25 -64 -7 5 13 -6 18 -26 15 -18 -3 -6 28 12 34 11 3
20 12 20 19 0 18 43 36 52 22 4 -6 1 -12 -7 -14z m2635 16 c0 -8 -16 -11 -65
-10 -45 0 -45 4 0 11 56 9 65 9 65 -1z m1879 -9 c-18 -11 -39 -11 -39 0 0 5
12 9 26 9 18 0 22 -3 13 -9z m-4454 -47 c-8 -8 -25 10 -25 26 0 13 2 13 14 -4
8 -10 13 -21 11 -22z m2722 2 c-3 -3 -12 -4 -19 -1 -8 3 -5 6 6 6 11 1 17 -2
13 -5z m1723 -20 c0 -2 -9 -4 -20 -4 -11 0 -20 4 -20 9 0 5 9 7 20 4 11 -3 20
-7 20 -9z m-3050 -24 c10 -19 10 -20 -9 -8 -22 13 -28 28 -11 28 5 0 14 -9 20
-20z m390 -8 c0 -5 -7 -9 -15 -9 -8 0 -15 4 -15 9 0 4 7 8 15 8 8 0 15 -4 15
-8z m1170 -29 c-11 -17 -11 -17 -6 0 3 10 6 24 7 30 0 9 2 9 5 0 3 -7 0 -20
-6 -30z m-3040 8 c0 -5 -6 -16 -13 -23 -17 -17 -20 -61 -4 -52 7 4 8 3 4 -2
-5 -5 -12 -9 -15 -9 -15 0 -32 -17 -32 -32 0 -13 3 -13 15 -3 11 9 15 9 15 1
0 -13 47 -5 68 12 8 7 12 5 12 -7 0 -9 -8 -16 -17 -16 -13 0 -12 -5 8 -26 l24
-25 -29 11 c-24 9 -27 8 -22 -6 3 -8 6 -22 6 -29 0 -10 9 -12 35 -8 37 6 52
-14 17 -24 -13 -3 -17 -13 -16 -34 1 -16 -4 -35 -10 -42 -29 -28 -37 -55 -24
-82 8 -18 9 -29 1 -33 -19 -12 -38 -108 -23 -117 4 -3 7 -23 6 -45 -2 -37 3
-46 51 -96 29 -30 53 -59 53 -65 0 -6 5 -7 11 -3 8 5 8 1 0 -14 -13 -25 -14
-35 -2 -27 12 7 26 -14 27 -40 3 -71 4 -79 15 -68 8 8 8 17 -1 32 -6 12 -9 27
-7 34 3 7 12 -6 21 -28 9 -22 21 -48 26 -58 8 -12 7 -16 -2 -15 -7 2 -17 8
-21 13 -5 6 -7 4 -5 -5 1 -8 -3 -25 -10 -37 -8 -14 -9 -24 -2 -28 17 -10 2
-23 -55 -50 -29 -14 -56 -32 -59 -40 -6 -15 -36 -21 -36 -7 0 4 -13 22 -30 40
-27 30 -67 106 -75 142 -2 8 -4 16 -4 18 -1 1 -1 5 0 8 0 4 -3 10 -8 13 -16
12 -75 139 -69 149 3 5 0 15 -8 21 -16 13 -42 99 -33 108 4 3 0 18 -8 34 -8
15 -15 39 -15 52 0 14 -13 81 -30 150 -16 69 -30 135 -30 146 0 12 -4 21 -10
21 -5 0 -10 7 -10 16 0 8 5 12 11 8 8 -5 8 -1 0 14 -14 26 -15 54 -2 33 6 -9
11 -10 15 -2 4 6 5 15 2 20 -3 5 12 8 34 7 26 -1 41 3 45 12 3 9 13 12 27 9
12 -4 28 -1 35 5 8 6 16 8 20 5 3 -4 19 3 34 14 30 21 54 17 45 -8 -3 -8 -1
-11 4 -8 6 4 8 21 4 41 -6 32 -4 34 20 34 14 0 26 -4 26 -9z m2625 -10 c-3 -6
-11 -8 -17 -5 -6 4 -5 9 3 15 16 10 23 4 14 -10z m518 -7 c-3 -8 -10 -14 -15
-14 -6 0 -8 -7 -4 -15 3 -8 0 -15 -5 -15 -7 0 -9 9 -5 23 3 12 6 27 6 34 0 7
6 10 14 7 8 -3 12 -12 9 -20z m-3513 6 c0 -5 -5 -10 -11 -10 -5 0 -7 5 -4 10
3 6 8 10 11 10 2 0 4 -4 4 -10z m3115 0 c4 -7 -3 -8 -22 -4 -38 9 -42 14 -10
14 14 0 29 -5 32 -10z m-8 -26 c-3 -3 -12 -4 -19 -1 -8 3 -5 6 6 6 11 1 17 -2
13 -5z m66 -14 c5 -4 -3 -5 -17 -3 -15 3 -29 10 -32 15 -7 11 36 1 49 -12z
m274 -15 c-1 -22 -5 -31 -10 -26 -9 9 -2 61 7 61 2 0 4 -16 3 -35z m-1591 -10
c-1 -28 -3 -32 -12 -20 -6 8 -16 15 -23 15 -6 0 -11 5 -11 10 0 6 9 10 21 10
11 0 17 5 14 10 -3 6 -2 10 3 10 5 0 8 -16 8 -35z m-1422 16 c3 -5 -1 -11 -9
-14 -9 -4 -12 -1 -8 9 6 16 10 17 17 5z m1736 -21 c-6 -11 -12 -20 -14 -20 -2
0 -2 9 1 20 3 11 9 20 15 20 5 0 4 -9 -2 -20z m780 1 c0 -5 14 -14 30 -21 17
-7 29 -15 26 -17 -2 -2 -23 5 -45 17 -23 11 -45 19 -49 16 -5 -3 -14 -1 -20 3
-8 5 1 8 23 9 19 1 35 -2 35 -7z m125 -1 c3 -5 1 -10 -4 -10 -6 0 -11 5 -11
10 0 6 2 10 4 10 3 0 8 -4 11 -10z m-2685 -20 c0 -5 -8 -10 -17 -10 -15 0 -16
2 -3 10 19 12 20 12 20 0z m3090 1 c0 -5 -7 -12 -16 -15 -14 -5 -15 -4 -4 9
14 17 20 19 20 6z m-1292 -15 c-7 -8 -17 -12 -22 -9 -4 3 -2 9 5 14 22 13 31
11 17 -5z m1241 -25 c-6 -17 -18 -36 -26 -43 -11 -9 -10 -1 6 30 25 49 35 55
20 13z m-1554 -29 c-3 -8 3 -22 13 -31 11 -9 25 -27 32 -41 12 -23 12 -24 -3
-11 -18 14 -20 12 -11 -13 3 -9 11 -16 18 -16 15 0 59 -64 46 -68 -6 -2 -7 -8
-4 -14 4 -7 9 -6 14 2 6 9 20 1 51 -29 24 -22 37 -41 30 -41 -10 0 -11 -3 -2
-14 11 -13 25 -66 18 -66 -2 0 -14 11 -28 26 -21 22 -21 24 -4 18 18 -7 18 -6
7 9 -8 9 -11 21 -7 27 3 5 -5 15 -19 22 -14 6 -26 18 -27 27 0 11 -2 12 -6 3
-3 -7 1 -21 9 -30 26 -30 30 -42 14 -36 -9 3 -16 10 -16 14 0 4 -25 33 -55 65
-58 61 -78 99 -24 45 17 -17 34 -28 38 -25 3 4 -2 12 -11 19 -10 7 -15 16 -12
19 6 6 -37 32 -48 29 -4 -1 -3 8 1 21 6 15 3 29 -9 47 -9 14 -20 41 -23 60 -6
33 -6 34 8 15 9 -11 13 -26 10 -33z m1195 33 c11 -13 8 -13 -19 -4 -35 12 -40
19 -12 19 10 0 24 -7 31 -15z m-1250 -5 c0 -5 -2 -10 -4 -10 -3 0 -8 5 -11 10
-3 6 -1 10 4 10 6 0 11 -4 11 -10z m110 -11 c0 -6 -4 -7 -10 -4 -5 3 -10 11
-10 16 0 6 5 7 10 4 6 -3 10 -11 10 -16z m-129 -6 c13 -16 12 -17 -3 -4 -14
11 -18 11 -18 1 0 -8 -3 -11 -6 -7 -5 5 3 27 10 27 2 0 10 -8 17 -17z m39 -10
c0 -21 -3 -24 -9 -14 -5 8 -7 20 -4 28 8 21 13 15 13 -14z m1186 -5 c16 -18
20 -26 9 -18 -30 23 -56 50 -47 50 5 0 21 -14 38 -32z m490 4 c-18 -16 -18
-16 -6 6 6 13 14 21 18 18 3 -4 -2 -14 -12 -24z m-1266 14 c0 -2 -8 -10 -17
-17 -16 -13 -17 -12 -4 4 13 16 21 21 21 13z m810 -18 c0 -6 -6 -5 -15 2 -8 7
-15 14 -15 16 0 2 7 1 15 -2 8 -4 15 -11 15 -16z m540 7 c-7 -9 -15 -13 -19
-10 -3 3 1 10 9 15 21 14 24 12 10 -5z m-1394 -4 c-3 -5 -16 -11 -28 -14 -22
-6 -22 -5 -4 8 22 17 40 20 32 6z m1235 -18 c-8 -15 -10 -15 -11 -2 0 17 10
32 18 25 2 -3 -1 -13 -7 -23z m-267 8 c4 -5 -3 -7 -14 -4 -23 6 -26 13 -6 13
8 0 17 -4 20 -9z m-127 -96 c0 -8 -4 -12 -9 -9 -4 3 -8 10 -8 17 0 6 -17 29
-37 52 l-38 40 46 -43 c25 -24 46 -49 46 -57z m113 70 c14 -8 21 -14 15 -14
-5 0 -21 6 -35 14 -14 8 -20 14 -15 14 6 0 21 -6 35 -14z m-2535 -5 c4 -6 -1
-7 -10 -3 -13 4 -16 1 -13 -17 1 -13 9 -25 17 -28 8 -3 11 0 8 6 -4 5 4 12 18
14 14 3 25 5 25 4 0 0 7 -19 14 -41 10 -28 11 -44 4 -53 -8 -9 -7 -11 5 -6 12
4 17 -3 23 -31 4 -21 2 -40 -3 -44 -9 -5 -21 -39 -29 -81 -2 -8 2 -20 7 -26 7
-8 7 -14 0 -18 -6 -4 -8 -22 -6 -41 4 -26 1 -35 -9 -35 -10 0 -13 8 -10 25 4
23 3 24 -22 13 -23 -11 -24 -13 -7 -19 10 -4 12 -8 6 -8 -7 -1 -13 -8 -13 -16
0 -8 -4 -15 -10 -15 -5 0 -10 6 -10 13 0 8 -4 7 -10 -3 -9 -13 -12 -13 -24 3
-12 15 -14 15 -19 2 -4 -8 -13 -12 -22 -9 -8 3 -12 10 -9 15 3 5 0 9 -5 9 -14
0 -14 -13 1 -28 9 -9 8 -12 -4 -12 -8 0 -21 7 -28 15 -9 10 -9 15 -1 15 6 0
11 4 11 10 0 6 -3 9 -7 8 -11 -3 -56 22 -65 36 -10 14 -10 69 0 63 4 -3 7 8 8
23 1 26 30 100 39 100 2 0 -1 -15 -6 -32 -5 -18 -7 -40 -4 -49 6 -19 35 -21
35 -2 0 9 -5 11 -12 7 -10 -6 -10 -4 -2 7 5 8 10 33 10 57 -1 23 2 42 7 42 4
0 7 4 7 10 0 5 -6 7 -13 4 -8 -3 -13 3 -13 16 0 13 4 16 10 10 13 -13 36 -13
36 1 0 5 -4 8 -9 5 -5 -3 -11 1 -15 9 -4 10 1 15 15 15 12 0 23 8 26 18 2 10
16 25 31 34 33 20 39 21 47 8z m2762 -3 c0 -8 -6 -14 -14 -14 -9 0 -10 4 -2
14 6 7 12 13 14 13 1 0 2 -6 2 -13z m83 3 c0 -5 -2 -10 -4 -10 -3 0 -8 5 -11
10 -3 6 -1 10 4 10 6 0 11 -4 11 -10z m-1635 -10 c3 -5 1 -10 -4 -10 -6 0 -11
5 -11 10 0 6 2 10 4 10 3 0 8 -4 11 -10z m1606 -13 c-6 -8 -9 -16 -6 -19 3 -2
-1 -5 -9 -5 -11 0 -12 4 -3 19 7 10 16 18 21 18 4 0 3 -6 -3 -13z m-1566 -7
c3 -6 -1 -7 -9 -4 -18 7 -21 14 -7 14 6 0 13 -4 16 -10z m1251 -17 c-7 -7 -26
7 -26 19 0 6 6 6 15 -2 9 -7 13 -15 11 -17z m-760 -18 c-9 -14 -14 -31 -10
-38 4 -7 4 -9 -1 -5 -4 4 -15 2 -24 -5 -14 -10 -14 -10 -3 5 8 9 11 22 7 28
-4 6 -1 9 6 8 7 -2 13 2 14 7 1 15 16 37 22 31 3 -3 -2 -17 -11 -31z m977 20
c-3 -9 -8 -14 -10 -11 -3 3 -2 9 2 15 9 16 15 13 8 -4z m32 -10 c-16 -14 -26
-25 -21 -25 5 0 1 -9 -9 -20 -31 -34 -37 -22 -9 19 22 34 36 45 64 49 3 1 -8
-10 -25 -23z m-1495 -48 c0 -6 -11 4 -25 23 -14 19 -25 36 -25 39 1 11 50 -50
50 -62z m-1165 33 c3 -5 1 -10 -4 -10 -6 0 -11 5 -11 10 0 6 2 10 4 10 3 0 8
-4 11 -10z m1265 -22 c0 -6 -7 -5 -15 2 -8 7 -15 17 -15 22 0 6 7 5 15 -2 8
-7 15 -17 15 -22z m677 10 c-3 -8 -6 -5 -6 6 -1 11 2 17 5 13 3 -3 4 -12 1
-19z m728 -18 c-21 -22 -44 -40 -49 -40 -6 0 5 13 24 30 19 16 31 30 25 30 -8
1 20 17 35 19 2 1 -14 -17 -35 -39z m-2944 -27 c-9 -16 -10 -16 -11 -1 0 9 3
25 7 35 7 16 8 17 11 1 2 -10 -1 -25 -7 -35z m3129 43 c0 -2 -8 -10 -17 -17
-16 -13 -17 -12 -4 4 13 16 21 21 21 13z m-697 -58 c31 -42 35 -57 9 -31 -21
20 -52 69 -52 80 0 8 7 0 43 -49z m-563 38 c0 -2 -8 -10 -17 -17 -16 -13 -17
-12 -4 4 13 16 21 21 21 13z m2350 -6 c0 -5 -2 -10 -4 -10 -3 0 -8 5 -11 10
-3 6 -1 10 4 10 6 0 11 -4 11 -10z m-2655 -10 c3 -5 1 -10 -4 -10 -6 0 -11 5
-11 10 0 6 2 10 4 10 3 0 8 -4 11 -10z m445 1 c0 -6 -4 -13 -10 -16 -5 -3 -10
1 -10 9 0 9 5 16 10 16 6 0 10 -4 10 -9z m303 -66 c4 -23 3 -34 -2 -25 -12 21
-24 99 -13 80 5 -8 12 -33 15 -55z m71 -4 c-2 -2 -15 8 -28 22 -13 14 -22 28
-19 31 3 2 15 -7 28 -22 13 -15 21 -29 19 -31z m487 45 c-7 -8 -8 -16 -4 -18
5 -1 -11 -21 -35 -42 -23 -22 -40 -32 -36 -23 3 10 10 17 16 17 5 0 6 5 3 11
-4 6 2 13 13 16 11 3 23 16 26 29 4 13 11 24 17 24 8 0 8 -4 0 -14z m-881 -18
c0 -6 -6 -5 -15 2 -8 7 -15 14 -15 16 0 2 7 1 15 -2 8 -4 15 -11 15 -16z m200
-13 c-10 -12 -10 -18 0 -30 9 -10 9 -15 1 -15 -6 0 -11 6 -11 13 0 8 -4 7 -10
-3 -16 -24 -11 -4 7 35 10 20 19 32 21 25 2 -6 -2 -17 -8 -25z m335 15 c10
-11 16 -20 13 -20 -3 0 -13 9 -23 20 -10 11 -16 20 -13 20 3 0 13 -9 23 -20z
m45 -12 c0 -5 -7 -3 -15 6 -8 8 -15 18 -15 22 0 3 7 1 15 -6 8 -7 15 -17 15
-22z m374 24 c3 -5 -1 -9 -9 -9 -8 0 -15 4 -15 9 0 4 4 8 9 8 6 0 12 -4 15 -8z
m-3295 -52 c0 -9 -4 -8 -9 5 -5 11 -9 27 -9 35 0 9 4 8 9 -5 5 -11 9 -27 9
-35z m1641 40 c0 -5 -2 -10 -4 -10 -3 0 -8 5 -11 10 -3 6 -1 10 4 10 6 0 11
-4 11 -10z m346 -22 l29 -31 -32 23 c-18 13 -33 27 -33 32 0 13 5 10 36 -24z
m258 23 c3 -5 -2 -15 -12 -22 -15 -12 -16 -12 -5 2 7 9 10 19 6 22 -3 4 -4 7
0 7 3 0 8 -4 11 -9z m329 -26 c-8 -22 -22 -18 -16 5 3 11 9 17 14 15 4 -3 6
-12 2 -20z m2037 15 c0 -5 -2 -10 -4 -10 -3 0 -8 5 -11 10 -3 6 -1 10 4 10 6
0 11 -4 11 -10z m-1060 -10 c0 -5 -5 -10 -11 -10 -5 0 -7 5 -4 10 3 6 8 10 11
10 2 0 4 -4 4 -10z m-1074 -34 c-6 -20 -14 -30 -17 -24 -6 9 16 58 26 58 1 0
-3 -15 -9 -34z m754 26 c0 -4 -10 -13 -22 -21 -23 -14 -23 -14 -4 8 20 22 26
25 26 13z m160 -12 c0 -5 -5 -10 -11 -10 -5 0 -7 5 -4 10 3 6 8 10 11 10 2 0
4 -4 4 -10z m-1080 -4 c0 -3 -4 -8 -10 -11 -5 -3 -10 -1 -10 4 0 6 5 11 10 11
6 0 10 -2 10 -4z m818 -31 c-6 -29 7 -32 34 -8 23 21 23 12 0 -15 -14 -15 -22
-18 -36 -10 -20 11 -21 11 -30 -19 -6 -18 -4 -21 16 -16 20 4 21 3 5 -7 -9 -6
-15 -15 -12 -21 4 -5 0 -10 -7 -10 -7 -1 -19 -2 -26 -3 -7 0 -17 -8 -22 -16
-8 -13 -10 -13 -10 1 0 18 26 33 41 23 5 -3 9 2 9 10 0 15 -12 21 -33 17 -5
-1 -7 4 -5 11 3 7 10 13 15 13 16 0 55 53 48 65 -3 5 -1 10 6 10 7 0 9 -10 7
-25z m232 17 c0 -4 -13 -13 -30 -19 -38 -14 -39 -8 -2 11 32 18 32 18 32 8z
m-1310 -42 c-6 -4 -2 -14 11 -26 12 -10 23 -18 25 -16 3 1 12 -2 22 -7 14 -8
15 -12 3 -23 -9 -9 -12 -9 -7 -1 4 8 -5 17 -26 26 -38 16 -69 47 -47 47 10 0
10 3 1 12 -21 21 -13 32 8 13 13 -12 16 -21 10 -25z m658 26 c-7 -8 -17 -12
-22 -9 -4 3 -2 9 5 14 22 13 31 11 17 -5z m133 -3 c13 -16 12 -17 -3 -4 -10 7
-18 15 -18 17 0 8 8 3 21 -13z m409 13 c0 -3 -4 -8 -10 -11 -5 -3 -10 -1 -10
4 0 6 5 11 10 11 6 0 10 -2 10 -4z m20 -16 c0 -5 -5 -10 -11 -10 -5 0 -7 5 -4
10 3 6 8 10 11 10 2 0 4 -4 4 -10z m-1175 -30 c10 -11 16 -20 13 -20 -3 0 -13
9 -23 20 -10 11 -16 20 -13 20 3 0 13 -9 23 -20z m635 -8 c0 -15 -2 -15 -10
-2 -13 20 -13 33 0 25 6 -3 10 -14 10 -23z m-1099 1 c13 -16 12 -17 -3 -4 -10
7 -18 15 -18 17 0 8 8 3 21 -13z m432 -37 c27 -12 28 -15 10 -15 -25 -1 -86
46 -77 61 3 5 13 0 21 -12 8 -11 29 -27 46 -34z m1136 37 c-6 -7 -17 -13 -23
-12 -7 0 -6 2 2 6 6 2 10 8 8 12 -3 4 1 8 9 8 11 0 12 -4 4 -14z m-1368 -10
c13 -16 12 -17 -3 -4 -10 7 -18 15 -18 17 0 8 8 3 21 -13z m1206 11 c-3 -3
-12 -4 -19 -1 -8 3 -5 6 6 6 11 1 17 -2 13 -5z m-1282 -73 c1 -11 -2 -18 -7
-15 -5 3 -7 11 -5 17 2 6 -11 24 -27 40 l-31 29 34 -25 c19 -14 35 -34 36 -46z
m55 54 c7 -8 8 -15 2 -15 -5 0 -15 7 -22 15 -7 8 -8 15 -2 15 5 0 15 -7 22
-15z m1628 1 c-10 -7 -14 -17 -10 -21 4 -5 2 -5 -5 -2 -6 4 -14 1 -16 -5 -4
-9 -6 -10 -6 -1 -1 6 9 19 21 27 27 19 40 21 16 2z m-800 -37 c-13 -37 -17
-34 -11 8 3 18 9 30 14 28 4 -3 3 -19 -3 -36z m-165 16 c-3 -9 -8 -14 -10 -11
-3 3 -2 9 2 15 9 16 15 13 8 -4z m2204 -7 c-3 -8 -6 -5 -6 6 -1 11 2 17 5 13
3 -3 4 -12 1 -19z m-2517 -10 c0 -13 -23 -5 -28 10 -2 7 2 10 12 6 9 -3 16
-11 16 -16z m69 -30 c8 3 11 0 7 -7 -4 -6 -1 -11 7 -11 8 0 17 -8 19 -18 4
-13 -1 -18 -16 -19 -12 -1 -15 1 -8 4 6 3 12 8 12 12 0 7 -70 36 -81 33 -4 -1
-5 8 -2 19 6 20 6 20 27 1 11 -11 27 -17 35 -14z m1141 12 c-14 -10 -27 -17
-29 -14 -6 5 31 33 44 33 6 1 -1 -8 -15 -19z m-2750 0 c0 -5 -2 -10 -4 -10 -3
0 -8 5 -11 10 -3 6 -1 10 4 10 6 0 11 -4 11 -10z m1498 -1 c29 -10 49 -35 37
-47 -3 -3 -5 0 -5 7 0 7 -5 9 -10 6 -6 -4 -9 -1 -8 7 2 8 -8 14 -24 16 -16 2
-28 8 -28 13 0 11 0 11 38 -2z m782 -9 c0 -5 -4 -10 -10 -10 -5 0 -10 5 -10
10 0 6 5 10 10 10 6 0 10 -4 10 -10z m-1084 -21 c19 -22 19 -22 -3 -8 -13 8
-23 17 -23 21 0 12 6 9 26 -13z m754 11 c0 -5 -5 -10 -11 -10 -5 0 -7 5 -4 10
3 6 8 10 11 10 2 0 4 -4 4 -10z m400 -43 c-17 -16 -34 -26 -37 -23 -3 3 5 14
18 25 13 11 18 20 12 21 -7 0 -13 7 -13 15 0 12 4 13 26 3 l26 -12 -32 -29z
m-990 39 c0 -3 -4 -8 -10 -11 -5 -3 -10 -1 -10 4 0 6 5 11 10 11 6 0 10 -2 10
-4z m110 -6 c8 -5 11 -10 5 -10 -5 0 -17 5 -25 10 -8 5 -10 10 -5 10 6 0 17
-5 25 -10z m760 -1 c0 -5 -9 -9 -20 -9 -11 0 -20 4 -20 8 0 4 9 8 20 9 11 1
20 -2 20 -8z m247 5 c-3 -3 -12 -4 -19 -1 -8 3 -5 6 6 6 11 1 17 -2 13 -5z
m198 -13 c-3 -6 -10 -9 -15 -6 -5 3 -30 -6 -57 -20 -26 -13 -41 -25 -33 -25
11 0 11 -3 -3 -11 -10 -6 -21 -8 -24 -5 -4 3 0 6 8 6 11 0 11 2 1 9 -10 6 -4
12 20 21 18 7 41 20 50 28 10 8 24 12 33 9 8 -4 15 -1 15 5 0 6 3 9 6 5 3 -3
3 -11 -1 -16z m-351 -6 c3 -10 -1 -15 -12 -15 -10 0 -23 -5 -29 -11 -8 -8 -16
-8 -30 1 -17 11 -17 11 0 6 12 -4 16 -2 11 5 -8 13 13 29 37 29 9 0 19 -7 23
-15z m-561 -12 c17 -10 105 -9 99 2 -3 5 1 4 10 -2 8 -7 18 -10 21 -7 3 3 15
-3 27 -14 l21 -20 -26 -6 c-14 -4 -23 -10 -21 -15 3 -5 21 -1 40 8 32 15 38
26 14 26 -6 0 -13 5 -15 12 -3 8 6 9 31 3 19 -4 38 -5 42 -1 4 3 4 1 0 -6 -6
-11 9 -24 39 -35 6 -1 9 -6 8 -10 -2 -5 8 -8 22 -8 14 0 25 5 25 10 0 6 -7 10
-16 10 -8 0 -12 5 -9 10 5 8 11 8 20 0 10 -8 15 -8 20 0 5 8 11 8 19 1 16 -14
26 -4 20 17 -4 13 -2 12 6 -2 10 -15 9 -20 -1 -27 -8 -5 -19 -9 -25 -9 -6 0
-17 -6 -23 -14 -6 -7 -22 -11 -36 -8 -25 4 -35 -12 -12 -21 6 -3 -4 -6 -23 -6
-24 0 -31 2 -21 8 11 7 10 10 -5 14 -16 4 -15 5 4 6 13 0 20 5 17 11 -4 6 -11
8 -16 5 -5 -4 -9 1 -9 9 0 20 -26 21 -34 1 -3 -8 -1 -15 5 -15 6 0 3 -7 -5
-16 -11 -11 -33 -15 -79 -13 -35 1 -70 -2 -77 -6 -9 -6 -11 -4 -5 5 5 9 2 11
-11 7 -23 -7 -74 -16 -56 -10 19 7 14 21 -10 26 -13 3 1 4 30 4 29 0 58 5 64
11 9 9 7 12 -8 12 -11 0 -26 6 -33 13 -8 6 -11 7 -8 2 3 -6 -3 -11 -14 -11
-13 0 -17 5 -14 16 6 20 -45 26 -57 8 -5 -9 -8 -8 -8 5 0 9 -5 17 -11 17 -5 0
-7 5 -3 11 6 10 67 5 87 -8z m411 8 c-2 -3 -20 -10 -38 -16 -28 -10 -33 -10
-29 1 4 10 0 11 -20 1 -14 -6 -23 -15 -21 -19 3 -5 0 -8 -6 -8 -7 0 -9 7 -6
16 5 14 4 15 -9 4 -10 -8 -15 -9 -15 -1 0 12 1 12 38 16 12 1 24 4 26 6 3 2
22 4 44 4 22 0 38 -2 36 -4z m248 -5 c6 4 8 2 5 -4 -4 -5 -16 -8 -28 -5 -16 4
-17 8 -7 14 7 5 14 4 16 -1 2 -6 9 -7 14 -4z m53 4 c-3 -5 -12 -10 -18 -10 -7
0 -6 4 3 10 19 12 23 12 15 0z m-1129 -15 c18 -13 18 -14 -4 -8 -12 3 -25 9
-28 14 -8 14 10 11 32 -6z m59 5 c3 -6 -1 -7 -9 -4 -18 7 -21 14 -7 14 6 0 13
-4 16 -10z m-1430 -10 c3 -6 -1 -7 -9 -4 -18 7 -21 14 -7 14 6 0 13 -4 16 -10z
m2252 -5 c0 -8 -4 -12 -9 -9 -4 3 -8 9 -8 15 0 5 4 9 8 9 5 0 9 -7 9 -15z
m-937 -5 c0 -5 -2 -10 -4 -10 -3 0 -8 5 -11 10 -3 6 -1 10 4 10 6 0 11 -4 11
-10z m445 -10 c3 -5 2 -10 -4 -10 -5 0 -13 5 -16 10 -3 6 -2 10 4 10 5 0 13
-4 16 -10z m551 -5 c-11 -8 -25 -15 -30 -15 -6 1 0 7 14 15 32 19 40 18 16 0z
m-90 -4 c-4 -5 -1 -12 4 -14 6 -3 5 -4 -2 -3 -15 3 -23 26 -8 26 6 0 9 -4 6
-9z m311 -16 c-15 -14 -33 -25 -40 -25 -6 0 4 11 23 25 45 31 53 31 17 0z
m1954 -2 c-12 -20 -14 -14 -5 12 4 9 9 14 11 11 3 -2 0 -13 -6 -23z m-2293
-38 c-2 -1 -21 -6 -43 -9 -36 -7 -38 -6 -21 7 10 7 30 12 43 9 13 -2 23 -6 21
-7z m152 6 c0 -5 -9 -11 -20 -14 -11 -3 -20 -1 -20 3 0 5 8 11 18 13 9 3 18 5
20 6 1 0 2 -3 2 -8z m345 -11 c-3 -5 -12 -10 -18 -10 -7 0 -6 4 3 10 19 12 23
12 15 0z m-3201 -16 c3 -8 2 -12 -4 -9 -6 3 -10 10 -10 16 0 14 7 11 14 -7z
m2790 7 c12 -5 1 -7 -31 -8 -27 0 -61 -4 -74 -8 -13 -4 -21 -4 -17 0 7 7 67
22 93 23 6 0 18 -3 29 -7z m-669 -11 c8 -13 -5 -13 -25 0 -13 8 -13 10 2 10 9
0 20 -4 23 -10z m75 -6 c0 -2 -11 -4 -25 -4 -14 0 -25 4 -25 9 0 4 11 6 25 3
14 -2 25 -6 25 -8z m220 6 c11 -8 7 -9 -15 -4 -37 8 -45 14 -19 14 10 0 26 -5
34 -10z m-96 -15 c-5 -11 -2 -13 10 -9 9 3 16 2 16 -4 0 -5 6 -10 13 -9 30 1
47 -4 47 -13 0 -13 -35 -13 -74 0 -17 5 -44 12 -61 16 -26 6 -28 7 -10 14 11
4 22 3 23 -1 4 -11 22 -12 21 -1 -3 14 1 22 11 22 5 0 7 -7 4 -15z m234 8
c-10 -2 -18 -9 -18 -14 0 -5 -10 -8 -22 -8 -17 1 -19 2 -5 6 9 2 17 9 17 14 0
5 10 8 23 8 16 -1 18 -2 5 -6z m140 -14 c86 13 82 13 82 0 0 -5 -4 -8 -8 -5
-13 8 -147 -23 -150 -34 -2 -6 -8 -10 -13 -10 -6 0 -7 5 -4 10 3 6 1 10 -4 10
-6 0 -11 -6 -12 -12 0 -10 -2 -10 -5 -1 -3 7 -18 9 -40 6 -22 -4 -34 -2 -34 6
0 11 19 15 54 11 11 -1 15 3 12 9 -4 7 -1 8 8 5 11 -4 16 0 16 12 0 17 0 17
13 0 12 -16 20 -17 85 -7z m-44 9 c-3 -4 -9 -8 -15 -8 -5 0 -9 4 -9 8 0 5 7 9
15 9 8 0 12 -4 9 -9z m193 6 c-3 -3 -12 -4 -19 -1 -8 3 -5 6 6 6 11 1 17 -2
13 -5z m-409 -14 c21 0 24 -2 12 -10 -11 -7 -7 -10 18 -10 19 0 32 -5 32 -13
0 -9 -11 -12 -35 -9 -19 2 -35 8 -35 13 0 4 -12 16 -27 24 -16 9 -20 14 -10
11 10 -3 31 -6 45 -6z m-283 -10 c3 -6 -1 -7 -9 -4 -18 7 -21 14 -7 14 6 0 13
-4 16 -10z m755 6 c0 -2 -7 -7 -16 -10 -8 -3 -12 -2 -9 4 6 10 25 14 25 6z
m-2900 -37 c0 -11 -4 -17 -10 -14 -5 3 -10 13 -10 21 0 8 5 14 10 14 6 0 10
-9 10 -21z m4440 1 c0 -10 -31 -22 -38 -15 -3 3 0 5 7 5 7 0 11 7 8 14 -4 10
-1 13 9 9 7 -3 14 -9 14 -13z m525 -17 c-3 -10 -9 -30 -12 -45 -3 -15 -9 -25
-14 -23 -4 3 -6 11 -4 18 2 7 6 24 9 40 4 15 11 27 17 27 7 0 8 -7 4 -17z
m-2590 -13 c3 -6 -1 -7 -9 -4 -18 7 -21 14 -7 14 6 0 13 -4 16 -10z m98 3 c-7
-2 -19 -2 -25 0 -7 3 -2 5 12 5 14 0 19 -2 13 -5z m1895 -42 c-2 -11 3 -15 20
-13 14 2 22 -2 22 -11 0 -8 12 -18 26 -21 18 -5 24 -12 20 -22 -3 -9 -1 -12 4
-9 10 6 15 -9 10 -30 -1 -5 1 -7 5 -4 9 9 66 -51 59 -62 -3 -5 0 -10 5 -10 26
-3 64 -20 72 -31 3 -5 17 -10 30 -10 13 -1 36 -12 51 -26 14 -13 31 -21 36
-18 16 10 25 -31 12 -54 -6 -11 -15 -20 -19 -20 -5 0 -16 -16 -25 -35 -9 -19
-23 -35 -30 -35 -8 0 -26 -25 -41 -55 -16 -30 -32 -55 -37 -55 -13 0 -9 18 5
23 9 4 9 6 0 6 -7 1 -21 -14 -30 -33 -50 -94 -69 -120 -157 -209 -53 -54 -96
-104 -96 -111 0 -19 -45 -37 -58 -24 -8 8 -9 5 -5 -10 3 -14 -2 -24 -19 -33
-12 -7 -41 -30 -63 -51 -22 -21 -45 -38 -52 -38 -6 0 -20 -11 -31 -25 -11 -14
-23 -25 -27 -25 -11 0 -102 -100 -96 -105 2 -3 -5 -5 -17 -5 -12 0 -22 -4 -22
-8 0 -8 -64 -49 -66 -42 0 3 -9 -1 -18 -9 -15 -12 -20 -10 -45 17 -21 24 -30
29 -39 20 -9 -9 -10 -6 -7 11 4 19 2 21 -11 10 -13 -11 -14 -9 -9 13 6 24 -3
40 -57 99 -10 10 -18 25 -18 32 0 9 -3 8 -9 -2 -6 -10 -10 -10 -16 -1 -4 6
-14 9 -22 6 -8 -3 -11 -1 -8 4 4 6 -6 10 -22 10 -19 0 -24 3 -14 9 10 7 8 12
-10 24 -12 9 -24 26 -26 37 -2 12 -15 32 -31 45 -23 21 -24 24 -8 25 16 0 15
3 -7 20 -27 22 -42 26 -32 10 3 -5 1 -10 -6 -10 -6 0 -9 8 -6 19 3 13 -1 21
-12 23 -11 3 -4 10 22 22 20 10 49 32 64 50 15 17 24 23 20 14 -4 -12 -2 -15
9 -11 8 3 13 12 9 20 -4 12 0 14 15 10 11 -3 18 -1 14 4 -5 8 9 13 29 10 4 0
7 6 7 14 0 15 33 38 42 29 3 -2 11 3 18 12 12 13 11 17 -1 26 -11 8 -11 9 4 4
11 -3 17 0 17 9 0 21 42 48 52 32 5 -8 8 -4 8 11 0 12 5 21 13 20 6 -2 11 2
10 8 -1 7 5 10 15 8 11 -3 24 6 37 26 24 36 59 40 86 8 20 -25 25 -43 8 -32
-6 3 -3 -5 6 -20 9 -14 21 -23 26 -20 5 3 9 -1 9 -8 0 -9 3 -9 10 2 7 11 8 6
5 -17 -3 -30 2 -37 26 -35 3 1 12 -10 19 -23 7 -14 17 -25 22 -25 12 0 10 28
-3 36 -6 3 -8 17 -5 30 5 17 2 24 -8 24 -8 0 -18 9 -21 20 -4 12 -11 17 -18
14 -9 -5 -9 -3 0 6 10 11 8 17 -9 31 -12 11 -18 25 -14 34 3 9 2 13 -4 10 -6
-3 -10 -1 -10 5 0 6 -4 9 -9 5 -12 -7 -25 31 -16 45 3 5 1 10 -4 10 -33 0 19
58 83 92 17 9 30 19 29 22 -7 16 3 29 85 112 48 48 79 85 70 82 -12 -5 -15 -3
-11 8 3 7 10 14 15 14 14 0 57 47 50 54 -3 3 2 6 11 6 11 0 14 -5 10 -17 -5
-12 -3 -14 8 -8 18 12 49 14 55 3 7 -11 24 -10 24 2 0 6 -5 9 -11 8 -6 -2 -13
5 -14 14 -2 11 2 15 13 11 11 -5 13 -3 7 8 -8 12 -6 12 8 0 10 -7 16 -21 15
-30z m88 -24 c1 -9 -2 -15 -7 -11 -5 3 -7 9 -4 14 3 5 -3 11 -12 14 -15 4 -15
5 1 3 11 -1 20 -10 22 -20z m46 -24 c-10 -4 -10 -8 -1 -19 14 -18 3 -32 -12
-17 -14 14 -5 43 13 42 10 0 10 -2 0 -6z m23 -63 c3 -5 1 -10 -4 -10 -6 0 -11
5 -11 10 0 6 2 10 4 10 3 0 8 -4 11 -10z m-3815 -60 c0 -11 -4 -20 -10 -20 -5
0 -10 9 -10 20 0 11 5 20 10 20 6 0 10 -9 10 -20z m315 -242 c5 4 5 1 1 -5
-10 -18 -23 -16 -30 3 -5 13 -4 14 7 6 8 -7 18 -8 22 -4z m2408 -85 c-4 -9 0
-11 12 -7 13 5 16 3 13 -7 -3 -8 -10 -13 -15 -12 -6 1 -8 -9 -5 -22 2 -15 0
-25 -7 -25 -6 0 -11 5 -11 10 0 6 -7 10 -15 10 -8 0 -15 5 -15 10 0 6 7 10 15
10 8 0 15 5 15 11 0 5 -4 8 -9 5 -5 -4 -7 2 -4 12 2 10 10 19 18 19 7 0 11 -6
8 -14z m67 -56 c0 -16 -3 -18 -11 -10 -6 6 -18 9 -25 6 -17 -6 -18 13 -1 31
15 18 37 2 37 -27z m-3097 -37 c4 -17 3 -19 -9 -9 -8 6 -14 18 -14 26 0 20 16
8 23 -17z m2057 -29 c0 -11 -4 -22 -9 -25 -5 -3 -8 5 -7 19 1 29 16 34 16 6z
m1010 15 c0 -2 -7 -6 -15 -10 -8 -3 -15 -1 -15 4 0 6 7 10 15 10 8 0 15 -2 15
-4z m3 -33 c-7 -2 -19 -2 -25 0 -7 3 -2 5 12 5 14 0 19 -2 13 -5z m-1015 -50
c-2 -9 -10 -19 -18 -21 -13 -5 -13 -3 0 13 14 17 13 18 -3 12 -11 -4 -16 -3
-12 3 10 17 37 11 33 -7z m10 -66 c-1 -14 -9 -24 -20 -24 -18 -2 -17 7 7 34
14 17 15 16 13 -10z m-118 -37 c0 -5 -7 -10 -15 -10 -8 0 -15 -4 -15 -10 0 -5
-6 -10 -12 -10 -7 1 -2 10 11 20 26 23 31 24 31 10z m100 -30 c-11 -7 -11 -90
0 -90 9 0 8 -20 -3 -37 -4 -6 -1 -14 5 -17 10 -5 10 -7 1 -12 -7 -3 -13 -12
-13 -20 0 -8 -5 -14 -11 -14 -6 0 -9 9 -6 20 3 10 1 20 -4 22 -5 2 -11 19 -15
38 -4 26 -3 31 5 20 6 -8 11 -24 11 -35 1 -18 1 -19 11 -3 6 12 7 24 0 36 -6
10 -7 29 -4 42 4 16 3 21 -5 16 -9 -5 -9 0 -2 20 16 41 22 47 31 33 4 -7 4
-16 -1 -19z m16 -267 c-2 -38 -5 -76 -5 -85 -1 -10 -9 -18 -18 -19 -11 0 -13
-3 -5 -6 6 -2 12 -9 12 -14 0 -4 -7 -6 -15 -3 -9 4 -18 -2 -24 -17 l-10 -24
-1 25 c-1 23 -2 23 -10 5 -8 -18 -9 -18 -9 -2 -1 10 6 20 14 23 8 4 15 16 15
28 0 17 2 18 10 6 8 -13 10 -12 11 5 1 11 1 28 0 38 -1 9 3 17 9 17 7 0 5 8
-4 22 -20 28 -20 39 -2 32 9 -3 17 3 21 15 12 39 16 21 11 -46z m-69 -5 c-3
-7 -5 -2 -5 12 0 14 2 19 5 13 2 -7 2 -19 0 -25z m-47 -18 c0 -5 -2 -10 -4
-10 -3 0 -8 5 -11 10 -3 6 -1 10 4 10 6 0 11 -4 11 -10z m-75 -20 c-3 -5 -12
-10 -18 -10 -7 0 -6 4 3 10 19 12 23 12 15 0z m128 -5 c4 -8 2 -17 -3 -20 -6
-4 -10 3 -10 14 0 25 6 27 13 6z m-163 -9 c0 -2 -7 -6 -15 -10 -8 -3 -15 -1
-15 4 0 6 7 10 15 10 8 0 15 -2 15 -4z m1510 -66 c0 -5 -4 -10 -10 -10 -5 0
-10 5 -10 10 0 6 5 10 10 10 6 0 10 -4 10 -10z m-1509 -23 c-10 -9 -11 -8 -5
6 3 10 9 15 12 12 3 -3 0 -11 -7 -18z m206 -70 c0 -18 2 -32 3 -32 0 0 3 -29
5 -65 3 -36 7 -82 10 -102 3 -22 1 -38 -5 -38 -5 0 -7 8 -4 18 5 14 3 14 -11
-3 -9 -12 -11 -21 -5 -23 13 -5 13 -32 1 -32 -5 0 -13 9 -16 20 -4 11 -11 18
-16 15 -13 -9 -11 9 3 23 9 9 9 12 -3 12 -9 0 -24 9 -34 20 -11 12 -13 20 -6
20 6 0 14 -6 17 -13 3 -8 12 -14 20 -14 12 0 15 8 12 29 -3 16 0 28 6 28 6 0
12 16 12 35 1 19 -3 35 -9 35 -8 0 -7 4 0 11 17 17 5 43 -13 28 -12 -10 -13
-8 -4 12 6 13 13 32 16 42 9 25 19 12 21 -26z m-512 -54 c-9 -24 -19 -42 -22
-39 -3 3 2 21 11 40 9 19 17 45 17 58 1 18 2 19 6 4 3 -10 -3 -38 -12 -63z
m479 -63 c-5 -5 -10 3 -11 18 -1 22 0 24 9 8 6 -10 6 -22 2 -26z m-514 -20
c-6 -11 -13 -20 -16 -20 -2 0 0 9 6 20 6 11 13 20 16 20 2 0 0 -9 -6 -20z
m250 -19 c-12 -24 -70 -66 -70 -52 0 5 9 16 21 24 11 8 17 17 12 19 -4 3 -3 3
4 2 6 -2 17 4 23 12 17 20 23 17 10 -5z m-290 -63 c-10 -22 -27 -52 -39 -67
l-21 -26 20 37 c11 21 17 46 14 55 -5 15 -4 16 5 3 9 -13 11 -12 12 5 1 11 2
25 2 32 0 6 5 9 12 6 11 -3 9 -13 -5 -45z m204 -13 c-4 -8 -11 -15 -16 -15 -6
0 -5 6 2 15 7 8 14 15 16 15 2 0 1 -7 -2 -15z m360 -40 c3 -9 -7 -27 -24 -45
-17 -17 -30 -27 -30 -22 0 5 9 17 20 27 11 10 17 22 14 26 -5 8 3 29 11 29 1
0 5 -7 9 -15z m-89 -35 c3 -5 1 -10 -4 -10 -6 0 -11 5 -11 10 0 6 2 10 4 10 3
0 8 -4 11 -10z m126 -8 c-6 -11 -6 -24 0 -34 6 -12 5 -28 -5 -50 -8 -18 -15
-27 -15 -20 -1 7 3 21 8 30 5 9 5 26 0 37 -7 18 -8 18 -8 2 -1 -10 -6 -15 -11
-12 -6 4 -2 18 10 36 24 32 36 39 21 11z m-311 -2 c0 -5 -4 -10 -10 -10 -5 0
-10 5 -10 10 0 6 5 10 10 10 6 0 10 -4 10 -10z m1831 -7 c12 -16 12 -17 -2 -6
-9 7 -20 9 -24 5 -5 -4 -5 -1 -1 6 9 16 11 15 27 -5z m-2191 4 c0 -2 -13 -16
-29 -31 -23 -22 -30 -24 -34 -12 -4 9 -1 13 7 10 7 -3 21 4 31 16 17 19 25 24
25 17z m690 -13 c0 -8 -5 -12 -10 -9 -6 4 -8 11 -5 16 9 14 15 11 15 -7z
m-150 -9 c0 -8 -8 -15 -17 -14 -11 0 -13 3 -5 6 6 2 10 9 6 14 -3 5 0 9 5 9 6
0 11 -7 11 -15z m20 -23 c0 -16 -69 -90 -89 -95 -14 -3 -18 -1 -14 10 3 7 8
11 11 9 11 -12 30 16 25 37 -5 18 -3 20 8 10 17 -17 29 -16 29 0 0 7 5 18 12
25 14 14 18 15 18 4z m120 -82 c0 -5 -4 -10 -10 -10 -5 0 -10 5 -10 10 0 6 5
10 10 10 6 0 10 -4 10 -10z m-13 -42 c-3 -8 -6 -5 -6 6 -1 11 2 17 5 13 3 -3
4 -12 1 -19z m-23 -13 c-7 -16 -24 -21 -24 -6 0 8 7 13 27 20 1 1 0 -6 -3 -14z
m-574 -5 c0 -5 -2 -10 -4 -10 -3 0 -8 5 -11 10 -3 6 -1 10 4 10 6 0 11 -4 11
-10z m564 -37 c5 -13 4 -14 -8 -4 -11 9 -15 9 -19 -1 -3 -7 -4 -3 -4 8 1 24
22 22 31 -3z m43 5 c-3 -8 -6 -5 -6 6 -1 11 2 17 5 13 3 -3 4 -12 1 -19z m634
-1 c-10 -9 -11 -8 -5 6 3 10 9 15 12 12 3 -3 0 -11 -7 -18z m-1186 3 c3 -6 -1
-7 -9 -4 -18 7 -21 14 -7 14 6 0 13 -4 16 -10z m199 -26 c3 -8 2 -12 -4 -9 -6
3 -10 10 -10 16 0 14 7 11 14 -7z m2036 6 c0 -5 -4 -10 -10 -10 -5 0 -10 5
-10 10 0 6 5 10 10 10 6 0 10 -4 10 -10z m-1696 -47 c4 -36 2 -44 -15 -54 -26
-13 -35 -6 -15 13 8 8 14 21 14 29 -2 27 2 62 6 58 2 -2 6 -23 10 -46z m-974
33 c0 -2 -8 -10 -17 -17 -16 -13 -17 -12 -4 4 13 16 21 21 21 13z m867 -18
c-3 -8 -6 -5 -6 6 -1 11 2 17 5 13 3 -3 4 -12 1 -19z m49 -2 c-3 -14 -2 -28 4
-31 13 -8 13 -25 -1 -25 -5 0 -8 4 -4 9 3 5 1 12 -5 16 -5 3 -10 -2 -10 -11 0
-10 -3 -15 -6 -11 -6 5 16 77 24 77 2 0 1 -11 -2 -24z m-356 -51 c0 -5 -9 5
-20 23 -26 42 -26 56 0 17 11 -16 20 -34 20 -40z m2163 19 c11 -14 17 -27 15
-30 -3 -2 -14 10 -27 26 -12 17 -18 30 -14 30 4 0 16 -12 26 -26z m-2223 6 c0
-5 -2 -10 -4 -10 -3 0 -8 5 -11 10 -3 6 -1 10 4 10 6 0 11 -4 11 -10z m420
-44 c0 -3 -4 -8 -10 -11 -5 -3 -10 -1 -10 4 0 6 5 11 10 11 6 0 10 -2 10 -4z
m-982 -41 c-3 -3 -9 2 -12 12 -6 14 -5 15 5 6 7 -7 10 -15 7 -18z m852 -10 c0
-5 -5 -3 -10 5 -5 8 -10 20 -10 25 0 6 5 3 10 -5 5 -8 10 -19 10 -25z m140 25
c0 -5 -5 -10 -11 -10 -5 0 -7 5 -4 10 3 6 8 10 11 10 2 0 4 -4 4 -10z m40 -37
c0 -12 -5 -25 -12 -29 -6 -4 -8 -3 -4 4 3 6 -4 18 -16 28 -15 11 -17 14 -5 11
13 -5 17 -1 17 16 0 18 2 19 10 7 5 -8 10 -25 10 -37z m-403 -55 c-2 -13 -4
-5 -4 17 -1 22 1 32 4 23 2 -10 2 -28 0 -40z m793 14 c0 -5 -7 -17 -15 -28
-14 -18 -14 -17 -4 9 12 27 19 34 19 19z m-1449 -25 c-10 -9 -11 -8 -5 6 3 10
9 15 12 12 3 -3 0 -11 -7 -18z m1059 -7 c-6 -11 -13 -20 -15 -20 -3 0 -5 9 -5
20 0 11 7 20 15 20 13 0 14 -4 5 -20z m698 -19 c-13 -15 -25 -27 -26 -25 -6 4
32 53 41 54 5 0 -2 -13 -15 -29z m-747 -16 c5 4 9 -1 9 -9 0 -9 -4 -16 -9 -16
-10 0 -22 25 -20 43 1 7 3 4 6 -6 2 -9 9 -15 14 -12z m-592 -29 c-3 -3 -11 5
-18 17 -13 21 -12 21 5 5 10 -10 16 -20 13 -22z m628 2 c-3 -8 -6 -5 -6 6 -1
11 2 17 5 13 3 -3 4 -12 1 -19z m-87 -8 c0 -5 -7 -10 -16 -10 -8 0 -12 5 -9
10 3 6 10 10 16 10 5 0 9 -4 9 -10z m30 0 c0 -5 -2 -10 -4 -10 -3 0 -8 5 -11
10 -3 6 -1 10 4 10 6 0 11 -4 11 -10z m-993 -37 c-3 -10 -5 -4 -5 12 0 17 2
24 5 18 2 -7 2 -21 0 -30z m1028 17 c3 -5 1 -10 -4 -10 -6 0 -11 5 -11 10 0 6
2 10 4 10 3 0 8 -4 11 -10z m45 -19 c0 -6 -5 -13 -11 -17 -6 -3 -9 -15 -6 -25
10 -36 -22 -16 -36 24 -4 9 -2 17 3 17 6 0 10 -10 11 -22 1 -21 2 -21 12 5 10
26 27 37 27 18z m-433 -23 c-3 -8 -6 -5 -6 6 -1 11 2 17 5 13 3 -3 4 -12 1
-19z m-586 -55 c13 -16 12 -17 -3 -4 -17 13 -22 21 -14 21 2 0 10 -8 17 -17z
m971 -42 c2 -22 0 -37 -4 -35 -8 5 -11 74 -4 74 2 0 6 -18 8 -39z m29 22 c7
-54 7 -103 0 -103 -4 0 -9 20 -9 45 -1 25 -4 50 -7 55 -4 6 -1 10 4 10 6 0 11
-3 12 -7z m-1321 -34 c-7 -11 -14 -18 -17 -15 -3 3 0 12 7 21 18 21 23 19 10
-6z m625 1 c-10 -11 -22 -20 -28 -20 -5 0 1 9 14 20 31 25 37 25 14 0z m515
-20 c0 -5 -2 -10 -4 -10 -3 0 -8 5 -11 10 -3 6 -1 10 4 10 6 0 11 -4 11 -10z
m-669 -38 c-7 -2 -18 1 -23 6 -8 8 -4 9 13 5 13 -4 18 -8 10 -11z m839 -74 c0
-18 -2 -20 -9 -8 -6 8 -7 18 -5 22 9 14 14 9 14 -14z m-203 -10 c-3 -8 -6 -5
-6 6 -1 11 2 17 5 13 3 -3 4 -12 1 -19z m169 2 c0 -12 -4 -16 -9 -11 -5 5 -6
14 -3 20 10 15 12 14 12 -9z m784 10 c0 -5 -5 -10 -11 -10 -5 0 -7 5 -4 10 3
6 8 10 11 10 2 0 4 -4 4 -10z m-10 -24 c0 -3 -4 -8 -10 -11 -5 -3 -10 -1 -10
4 0 6 5 11 10 11 6 0 10 -2 10 -4z m-1000 -20 c0 -2 -8 -10 -17 -17 -16 -13
-17 -12 -4 4 13 16 21 21 21 13z m295 -36 c3 -6 -1 -7 -9 -4 -18 7 -21 14 -7
14 6 0 13 -4 16 -10z m4 -49 c15 -12 14 -13 -2 -7 -17 5 -18 2 -12 -34 4 -26
3 -40 -4 -40 -7 0 -11 24 -10 63 0 34 3 55 6 47 3 -8 13 -21 22 -29z m-683
-97 c-4 -9 -9 -15 -11 -12 -3 3 -3 13 1 22 4 9 9 15 11 12 3 -3 3 -13 -1 -22z
m676 -29 c-2 -14 -9 -25 -14 -25 -6 0 -7 7 -4 16 3 9 6 22 6 30 0 9 4 13 9 10
4 -3 6 -17 3 -31z m-2 -178 c-4 -5 -10 -1 -14 8 -4 10 -2 14 5 9 8 -4 9 1 4
17 -10 31 -13 81 -6 94 3 6 9 -19 12 -55 4 -36 4 -69 -1 -73z m-743 71 c-3 -8
-6 -5 -6 6 -1 11 2 17 5 13 3 -3 4 -12 1 -19z m3393 -118 c0 -5 -4 -10 -10
-10 -5 0 -10 5 -10 10 0 6 5 10 10 10 6 0 10 -4 10 -10z m-2640 -94 c0 -2 -7
-7 -16 -10 -8 -3 -12 -2 -9 4 6 10 25 14 25 6z m-3 -38 c-3 -8 -6 -5 -6 6 -1
11 2 17 5 13 3 -3 4 -12 1 -19z m-2445 -30 c-8 -8 -9 -4 -5 13 4 13 8 18 11
10 2 -7 -1 -18 -6 -23z m2425 -13 c0 -8 -4 -15 -9 -15 -4 0 -8 7 -8 15 0 8 4
15 8 15 5 0 9 -7 9 -15z m-347 -120 c14 -19 14 -19 -2 -6 -10 7 -18 18 -18 24
0 6 1 8 3 6 1 -2 9 -13 17 -24z m370 0 c0 -8 -4 -15 -10 -15 -5 0 -10 7 -10
15 0 8 5 15 10 15 6 0 10 -7 10 -15z m-2338 -1 c7 -6 -33 -73 -44 -74 -13 0
-9 55 4 68 13 13 31 16 40 6z m2326 -61 c-10 -2 -18 -9 -18 -15 0 -6 -3 -9 -6
-5 -10 10 6 27 24 26 15 -1 15 -2 0 -6z m-21 -65 c-3 -7 -5 -2 -5 12 0 14 2
19 5 13 2 -7 2 -19 0 -25z m20 -10 c-3 -7 -5 -2 -5 12 0 14 2 19 5 13 2 -7 2
-19 0 -25z m-20 -40 c2 -27 0 -29 -7 -13 -11 26 -12 45 -2 45 4 0 8 -15 9 -32z
m33 -52 c0 -3 -4 -8 -10 -11 -5 -3 -10 -1 -10 4 0 6 5 11 10 11 6 0 10 -2 10
-4z m-13 -75 c0 -11 -5 -18 -9 -15 -4 3 -5 11 -1 19 7 21 12 19 10 -4z m-2729
-20 c-13 -15 -25 -27 -27 -25 -7 6 29 54 40 54 6 0 0 -13 -13 -29z m39 -13
c-3 -8 -6 -5 -6 6 -1 11 2 17 5 13 3 -3 4 -12 1 -19z m2693 -8 c0 -5 -5 -10
-11 -10 -5 0 -7 5 -4 10 3 6 8 10 11 10 2 0 4 -4 4 -10z m-1055 -20 c3 -5 1
-10 -4 -10 -6 0 -11 5 -11 10 0 6 2 10 4 10 3 0 8 -4 11 -10z m1045 -20 c-6
-11 -15 -20 -20 -20 -6 0 -5 9 2 20 7 11 16 20 21 20 4 0 3 -9 -3 -20z m2980
17 c0 -2 -17 -19 -37 -38 l-38 -34 34 38 c33 34 41 42 41 34z m-2968 -89 c-6
-6 -7 0 -4 19 5 21 7 23 10 9 2 -10 0 -22 -6 -28z m-12 -69 c-13 -8 -13 -10 0
-19 9 -6 10 -10 3 -10 -19 0 -26 20 -12 36 6 8 14 12 18 9 3 -3 -1 -10 -9 -16z
m7 -161 c-3 -7 -5 -2 -5 12 0 14 2 19 5 13 2 -7 2 -19 0 -25z m-25 -28 c3 -16
1 -30 -4 -30 -4 0 -8 14 -8 30 0 17 2 30 4 30 2 0 6 -13 8 -30z m-14 -81 c-3
-8 -7 -3 -11 10 -4 17 -3 21 5 13 5 -5 8 -16 6 -23z m32 -49 c0 -5 -7 -7 -15
-4 -8 4 -15 8 -15 10 0 2 7 4 15 4 8 0 15 -4 15 -10z m-2380 -90 c0 -5 -4 -10
-10 -10 -5 0 -10 5 -10 10 0 6 5 10 10 10 6 0 10 -4 10 -10z m76 -68 c6 -4 14
-15 17 -26 5 -12 13 -16 24 -12 10 4 14 4 10 0 -4 -4 -2 -13 4 -20 8 -10 6
-11 -15 -1 -14 7 -26 16 -26 21 0 5 -6 3 -14 -4 -8 -6 -12 -18 -9 -26 3 -8 -1
-14 -9 -14 -10 0 -13 9 -10 29 3 22 8 28 21 24 13 -5 13 -3 -3 15 -18 21 -13
30 10 14z m86 -124 c5 -10 5 -18 0 -18 -12 0 -32 46 -24 55 4 3 8 0 11 -7 2
-7 8 -21 13 -30z m-124 -184 c2 -1 -1 -5 -7 -8 -5 -4 -15 4 -22 16 -12 22 -11
22 7 8 10 -8 20 -15 22 -16z m152 -5 c0 -6 -4 -7 -10 -4 -5 3 -10 11 -10 16 0
6 5 7 10 4 6 -3 10 -11 10 -16z m4750 -83 c0 -2 -7 -7 -16 -10 -8 -3 -12 -2
-9 4 6 10 25 14 25 6z m-4460 -406 c0 -11 -4 -20 -9 -20 -7 0 -8 17 -2 38 4
10 11 -2 11 -18z m2735 -100 c3 -5 -1 -10 -10 -10 -9 0 -13 5 -10 10 3 6 8 10
10 10 2 0 7 -4 10 -10z m135 6 c0 -2 -7 -6 -15 -10 -8 -3 -15 -1 -15 4 0 6 7
10 15 10 8 0 15 -2 15 -4z m-2723 -41 c-4 -8 -14 -15 -23 -15 -16 0 -16 2 2
19 21 21 29 19 21 -4z m2483 11 c0 -3 -4 -8 -10 -11 -5 -3 -10 -1 -10 4 0 6 5
11 10 11 6 0 10 -2 10 -4z m44 -11 c-8 -19 -10 -19 -18 0 -3 9 0 15 9 15 9 0
12 -6 9 -15z m53 -1 c-3 -3 -12 -4 -19 -1 -8 3 -5 6 6 6 11 1 17 -2 13 -5z
m13 -18 c0 -2 -11 -6 -25 -8 -13 -3 -22 -1 -19 3 5 9 44 13 44 5z m-120 -10
c0 -3 -4 -8 -10 -11 -5 -3 -10 -1 -10 4 0 6 5 11 10 11 6 0 10 -2 10 -4z"/>
<path d="M6037 8767 c-3 -7 3 -13 14 -13 22 0 25 12 5 19 -8 3 -16 0 -19 -6z"/>
<path d="M6420 8465 c-7 -9 -11 -18 -8 -20 3 -3 11 1 18 10 7 9 11 18 8 20 -3
3 -11 -1 -18 -10z"/>
<path d="M6161 8044 c0 -11 3 -14 6 -6 3 7 2 16 -1 19 -3 4 -6 -2 -5 -13z"/>
<path d="M6130 8029 c0 -5 5 -7 10 -4 6 3 10 8 10 11 0 2 -4 4 -10 4 -5 0 -10
-5 -10 -11z"/>
<path d="M6170 7976 c0 -2 7 -9 15 -16 13 -11 14 -10 9 4 -5 14 -24 23 -24 12z"/>
<path d="M6370 7820 c0 -5 7 -7 15 -4 8 4 15 8 15 10 0 2 -7 4 -15 4 -8 0 -15
-4 -15 -10z"/>
<path d="M7187 7688 c-12 -12 -25 -16 -41 -12 -19 4 -28 0 -41 -20 -19 -29
-14 -56 10 -56 11 0 14 6 9 25 -5 20 -3 24 10 19 9 -3 13 -10 10 -15 -8 -14
12 -10 25 4 6 8 7 18 3 22 -4 5 -2 5 4 2 14 -8 45 25 36 39 -4 6 -13 3 -25 -8z"/>
<path d="M6936 7087 c17 -35 34 -49 34 -27 0 6 -4 10 -10 10 -5 0 -10 6 -10
14 0 7 -7 19 -16 27 -13 11 -13 7 2 -24z"/>
<path d="M7075 6800 c21 -24 26 -25 19 -6 -3 8 -13 17 -22 21 -13 5 -13 2 3
-15z"/>
<path d="M7107 6804 c3 -7 9 -14 14 -14 14 0 10 17 -5 23 -10 4 -13 1 -9 -9z"/>
<path d="M7101 6614 c0 -11 3 -14 6 -6 3 7 2 16 -1 19 -3 4 -6 -2 -5 -13z"/>
<path d="M7280 6540 c0 -5 7 -10 16 -10 8 0 12 5 9 10 -3 6 -10 10 -16 10 -5
0 -9 -4 -9 -10z"/>
<path d="M3927 8643 c-9 -2 -15 -8 -12 -13 6 -10 45 -1 45 11 0 9 -4 10 -33 2z"/>
<path d="M3860 8610 c-9 -6 -10 -10 -3 -10 6 0 15 5 18 10 8 12 4 12 -15 0z"/>
<path d="M3670 8480 c0 -5 5 -10 11 -10 5 0 7 5 4 10 -3 6 -8 10 -11 10 -2 0
-4 -4 -4 -10z"/>
<path d="M3310 8179 c0 -5 5 -7 10 -4 6 3 10 8 10 11 0 2 -4 4 -10 4 -5 0 -10
-5 -10 -11z"/>
<path d="M3910 8099 c0 -5 5 -7 10 -4 6 3 10 8 10 11 0 2 -4 4 -10 4 -5 0 -10
-5 -10 -11z"/>
<path d="M3255 8010 c-3 -5 -1 -10 4 -10 6 0 11 5 11 10 0 6 -2 10 -4 10 -3 0
-8 -4 -11 -10z"/>
<path d="M3792 7980 c0 -14 2 -19 5 -12 2 6 2 18 0 25 -3 6 -5 1 -5 -13z"/>
<path d="M3737 7900 c3 -11 9 -17 14 -14 14 8 10 34 -5 34 -9 0 -12 -7 -9 -20z"/>
<path d="M3136 7872 c-28 -42 -32 -52 -15 -52 5 0 8 4 4 9 -3 5 -1 12 5 16 11
6 44 65 37 65 -3 0 -16 -17 -31 -38z"/>
<path d="M3165 7850 c-3 -5 1 -10 9 -10 9 0 16 5 16 10 0 6 -4 10 -9 10 -6 0
-13 -4 -16 -10z"/>
<path d="M3110 7795 c0 -8 -4 -15 -10 -15 -5 0 -10 -4 -10 -10 0 -21 28 -9 32
15 3 14 1 25 -3 25 -5 0 -9 -7 -9 -15z"/>
<path d="M3050 7770 c-9 -6 -10 -10 -3 -10 6 0 15 5 18 10 8 12 4 12 -15 0z"/>
<path d="M3258 7603 c7 -3 16 -2 19 1 4 3 -2 6 -13 5 -11 0 -14 -3 -6 -6z"/>
<path d="M3096 7508 c3 -4 9 -8 15 -8 5 0 9 4 9 8 0 5 -7 9 -15 9 -8 0 -12 -4
-9 -9z"/>
<path d="M3090 7433 c-23 -23 -23 -24 -3 -14 22 11 38 30 32 35 -2 2 -15 -8
-29 -21z"/>
<path d="M2960 7325 c0 -8 2 -15 4 -15 2 0 6 7 10 15 3 8 1 15 -4 15 -6 0 -10
-7 -10 -15z"/>
<path d="M3120 7260 c-9 -6 -10 -10 -3 -10 6 0 15 5 18 10 8 12 4 12 -15 0z"/>
<path d="M3077 7143 c-4 -3 -7 -11 -7 -17 0 -6 5 -5 12 2 6 6 9 14 7 17 -3 3
-9 2 -12 -2z"/>
<path d="M3049 6753 c-13 -16 -12 -17 4 -4 16 13 21 21 13 21 -2 0 -10 -8 -17
-17z"/>
<path d="M3059 6722 c-24 -37 -27 -62 -8 -62 5 0 9 6 9 13 0 8 7 28 16 46 23
46 12 48 -17 3z"/>
<path d="M4714 7073 c10 -11 36 -12 36 -2 0 5 -10 9 -22 9 -12 0 -18 -3 -14
-7z"/>
<path d="M5000 6518 c0 -9 5 -20 10 -23 13 -8 13 5 0 25 -8 13 -10 13 -10 -2z"/>
<path d="M5103 6510 c3 -13 0 -23 -9 -27 -8 -3 -14 -13 -14 -22 0 -9 -5 -22
-12 -29 -9 -9 -9 -12 0 -12 6 0 16 -9 22 -19 9 -19 7 -20 -35 -17 -50 3 -53 0
-27 -21 15 -12 14 -13 -10 -7 -33 7 -35 1 -7 -37 14 -21 16 -27 5 -23 -15 6
-16 -10 -2 -36 4 -8 -2 -4 -13 9 -16 17 -21 19 -21 8 0 -9 5 -19 10 -22 15 -9
12 -27 -2 -20 -7 4 -2 -3 12 -15 25 -21 25 -22 2 -17 -12 3 -20 1 -16 -4 3 -5
10 -9 16 -9 5 0 21 -9 35 -20 29 -22 24 -27 -8 -7 -17 10 -23 9 -26 -1 -3 -6
-10 -9 -16 -6 -8 5 -8 2 1 -7 14 -16 16 -33 2 -24 -5 3 -10 -1 -10 -9 0 -8 4
-17 10 -21 5 -3 7 -12 4 -19 -7 -17 57 -118 93 -145 23 -19 28 -20 35 -7 5 8
15 13 23 10 9 -4 15 0 15 10 0 9 4 16 8 16 5 0 17 15 27 34 11 19 22 33 26 30
11 -6 27 28 22 46 -4 12 -3 12 5 1 7 -10 11 -10 17 -1 4 7 2 16 -5 20 -7 4
-10 12 -6 18 11 19 24 102 15 102 -5 0 -6 15 -2 33 l6 32 -32 -29 c-33 -32
-43 -26 -13 7 16 20 16 20 -2 13 -16 -5 -17 -4 -6 9 10 12 15 13 21 4 4 -8 13
0 25 22 15 30 15 33 1 20 -20 -16 -23 -2 -4 19 10 12 9 12 -5 1 -18 -13 -25
-4 -10 15 4 5 -3 -1 -15 -13 -12 -13 -26 -23 -32 -23 -5 0 4 14 20 31 16 18
27 35 23 38 -3 3 -14 -4 -23 -16 -11 -13 -23 -18 -30 -13 -10 5 -9 9 3 13 9 4
16 11 16 17 0 6 -6 8 -12 4 -10 -6 -10 -5 -1 7 9 11 8 18 -1 32 -17 22 -29 22
-22 -1 5 -14 0 -18 -20 -20 -20 -1 -24 1 -16 11 16 20 26 61 13 53 -10 -7 -13
-2 -15 34 -1 8 -10 16 -20 18 -15 3 -18 0 -13 -18z m77 -120 c0 -5 -5 -10 -11
-10 -5 0 -7 5 -4 10 3 6 8 10 11 10 2 0 4 -4 4 -10z m-76 -39 c4 -5 -3 -7 -14
-4 -23 6 -26 13 -6 13 8 0 17 -4 20 -9z m-44 -46 c14 -19 14 -19 -2 -6 -10 7
-18 18 -18 24 0 6 1 8 3 6 1 -2 9 -13 17 -24z m180 7 c0 -4 -9 -13 -20 -19
-14 -9 -21 -10 -26 -1 -4 6 -3 8 3 5 6 -4 16 0 23 8 14 17 20 19 20 7z m-164
-73 c3 -6 -5 -3 -20 6 -14 10 -26 19 -26 22 0 7 39 -17 46 -28z m-19 -15 c-3
-3 -12 -4 -19 -1 -8 3 -5 6 6 6 11 1 17 -2 13 -5z m153 -39 c-13 -14 -28 -25
-33 -25 -12 0 35 50 47 50 5 0 -1 -11 -14 -25z m-185 -45 c3 -5 1 -10 -4 -10
-6 0 -11 5 -11 10 0 6 2 10 4 10 3 0 8 -4 11 -10z"/>
<path d="M5277 6504 c-4 -4 -7 -17 -7 -28 1 -19 1 -20 11 -3 11 19 8 43 -4 31z"/>
<path d="M5055 6450 c-3 -5 -1 -10 4 -10 6 0 11 5 11 10 0 6 -2 10 -4 10 -3 0
-8 -4 -11 -10z"/>
<path d="M4927 6399 c6 -22 23 -26 23 -5 0 8 -6 16 -14 19 -10 4 -12 0 -9 -14z"/>
<path d="M4880 6336 c0 -2 8 -10 18 -17 15 -13 16 -12 3 4 -13 16 -21 21 -21
13z"/>
<path d="M5340 6260 c-12 -7 -10 -9 7 -7 12 0 19 5 17 9 -6 10 -6 10 -24 -2z"/>
<path d="M4850 6229 c0 -5 5 -7 10 -4 6 3 10 8 10 11 0 2 -4 4 -10 4 -5 0 -10
-5 -10 -11z"/>
<path d="M5338 6213 c7 -3 16 -2 19 1 4 3 -2 6 -13 5 -11 0 -14 -3 -6 -6z"/>
<path d="M4810 6198 c0 -12 48 -10 55 2 3 5 -7 8 -25 7 -16 -1 -30 -5 -30 -9z"/>
<path d="M5265 6010 c-3 -5 -1 -10 4 -10 6 0 11 5 11 10 0 6 -2 10 -4 10 -3 0
-8 -4 -11 -10z"/>
<path d="M5327 6003 c-10 -10 -8 -33 2 -33 6 0 9 9 8 20 -1 23 -1 22 -10 13z"/>
<path d="M4900 5960 c-8 -5 -10 -10 -5 -10 6 0 17 5 25 10 8 5 11 10 5 10 -5
0 -17 -5 -25 -10z"/>
<path d="M5261 5941 c-8 -5 -10 -14 -7 -20 4 -6 12 -9 17 -6 5 4 9 0 9 -7 0
-7 14 -26 30 -41 17 -16 30 -24 30 -18 0 6 -10 19 -21 29 -12 9 -27 29 -33 44
-8 19 -16 24 -25 19z"/>
<path d="M5203 5904 c-3 -8 -12 -13 -19 -10 -19 7 -17 -4 5 -33 l19 -24 -3 26
c-2 15 3 34 12 42 8 9 10 15 3 15 -6 0 -13 -7 -17 -16z"/>
<path d="M5221 5863 c-1 -17 4 -35 9 -38 11 -7 11 9 0 45 -8 24 -8 24 -9 -7z"/>
<path d="M5039 5853 c-13 -16 -12 -17 4 -4 16 13 21 21 13 21 -2 0 -10 -8 -17
-17z"/>
<path d="M5140 5855 c0 -5 5 -17 10 -25 5 -8 10 -10 10 -5 0 6 -5 17 -10 25
-5 8 -10 11 -10 5z"/>
<path d="M5130 5791 c0 -6 4 -13 10 -16 6 -3 7 1 4 9 -7 18 -14 21 -14 7z"/>
<path d="M2710 6336 c0 -8 5 -18 10 -21 6 -3 10 1 10 9 0 8 -4 18 -10 21 -5 3
-10 -1 -10 -9z"/>
<path d="M2560 6313 c0 -11 3 -14 8 -7 4 6 14 14 22 17 10 4 8 6 -7 6 -16 1
-23 -5 -23 -16z"/>
<path d="M2616 6309 c3 -6 1 -15 -7 -20 -10 -6 -6 -11 15 -19 32 -12 50 -4 23
11 -9 6 -17 17 -17 24 0 8 -5 15 -11 15 -5 0 -7 -5 -3 -11z"/>
<path d="M2690 6266 c0 -3 9 -10 20 -16 11 -6 20 -8 20 -6 0 3 -9 10 -20 16
-11 6 -20 8 -20 6z"/>
<path d="M7965 6410 c3 -5 13 -10 21 -10 8 0 12 5 9 10 -3 6 -13 10 -21 10 -8
0 -12 -4 -9 -10z"/>
<path d="M7550 6255 c0 -8 4 -15 10 -15 5 0 7 7 4 15 -4 8 -8 15 -10 15 -2 0
-4 -7 -4 -15z"/>
<path d="M7715 6250 c3 -5 8 -10 11 -10 2 0 4 5 4 10 0 6 -5 10 -11 10 -5 0
-7 -4 -4 -10z"/>
<path d="M7437 6171 c-3 -13 -1 -18 9 -14 7 2 10 11 7 19 -7 19 -10 18 -16 -5z"/>
<path d="M7198 5502 c-11 -15 -11 -15 3 -5 16 13 62 6 54 -7 -3 -5 0 -12 6
-15 7 -5 9 1 7 16 -4 29 -50 36 -70 11z"/>
<path d="M7100 5490 c0 -5 5 -10 11 -10 5 0 7 5 4 10 -3 6 -8 10 -11 10 -2 0
-4 -4 -4 -10z"/>
<path d="M7100 5430 c0 -5 5 -10 11 -10 5 0 7 5 4 10 -3 6 -8 10 -11 10 -2 0
-4 -4 -4 -10z"/>
<path d="M7436 5074 c-4 -9 -4 -19 -1 -22 2 -3 7 3 11 12 4 9 4 19 1 22 -2 3
-7 -3 -11 -12z"/>
<path d="M2820 6159 c0 -5 5 -7 10 -4 6 3 10 8 10 11 0 2 -4 4 -10 4 -5 0 -10
-5 -10 -11z"/>
<path d="M2560 5979 c0 -5 5 -7 10 -4 6 3 10 8 10 11 0 2 -4 4 -10 4 -5 0 -10
-5 -10 -11z"/>
<path d="M2910 5289 c0 -5 5 -7 10 -4 6 3 10 8 10 11 0 2 -4 4 -10 4 -5 0 -10
-5 -10 -11z"/>
<path d="M2940 5130 c0 -5 5 -10 11 -10 5 0 7 5 4 10 -3 6 -8 10 -11 10 -2 0
-4 -4 -4 -10z"/>
<path d="M3105 5850 c-3 -5 1 -10 9 -10 9 0 16 5 16 10 0 6 -4 10 -9 10 -6 0
-13 -4 -16 -10z"/>
<path d="M2890 5590 c0 -5 5 -10 10 -10 6 0 10 5 10 10 0 6 -4 10 -10 10 -5 0
-10 -4 -10 -10z"/>
<path d="M5100 5420 c0 -5 4 -10 9 -10 6 0 13 5 16 10 3 6 -1 10 -9 10 -9 0
-16 -4 -16 -10z"/>
<path d="M6622 4585 c-27 -31 -27 -35 -2 -28 11 3 20 11 20 18 0 7 5 15 12 17
8 3 9 7 2 11 -6 3 -21 -5 -32 -18z"/>
<path d="M6321 4574 c0 -11 3 -14 6 -6 3 7 2 16 -1 19 -3 4 -6 -2 -5 -13z"/>
<path d="M6731 4554 c0 -11 3 -14 6 -6 3 7 2 16 -1 19 -3 4 -6 -2 -5 -13z"/>
<path d="M6310 4539 c0 -5 5 -7 10 -4 6 3 10 8 10 11 0 2 -4 4 -10 4 -5 0 -10
-5 -10 -11z"/>
<path d="M6285 4489 c-4 -6 -5 -13 -2 -16 7 -7 27 6 27 18 0 12 -17 12 -25 -2z"/>
<path d="M5014 9464 c3 -8 6 -18 6 -20 0 -2 5 -4 10 -4 16 0 11 27 -6 34 -12
5 -15 2 -10 -10z"/>
<path d="M5404 9352 c2 -19 8 -37 12 -40 4 -4 5 0 2 8 -3 8 1 20 8 25 10 7 11
15 4 25 -9 13 -10 13 -10 0 0 -13 -1 -13 -11 0 -7 11 -9 7 -5 -18z"/>
<path d="M5360 9343 c0 -10 4 -14 8 -8 4 6 11 13 16 18 5 4 2 7 -7 7 -10 0
-17 -8 -17 -17z"/>
<path d="M4046 9225 c-24 -18 -21 -18 29 0 32 11 35 14 15 14 -14 0 -34 -6
-44 -14z"/>
<path d="M3980 9200 c-13 -9 -13 -10 0 -10 8 0 22 5 30 10 13 9 13 10 0 10 -8
0 -22 -5 -30 -10z"/>
<path d="M5230 9153 c5 -2 8 -9 5 -14 -4 -5 -2 -17 4 -26 8 -15 10 -13 8 11
-1 16 -8 31 -15 32 -7 1 -8 0 -2 -3z"/>
<path d="M3816 9113 c-56 -28 -71 -48 -17 -22 22 10 46 19 53 19 7 0 21 7 32
15 18 13 18 14 -2 12 -12 0 -41 -11 -66 -24z"/>
<path d="M5216 9085 c-3 -8 -1 -15 4 -15 6 0 10 7 10 15 0 8 -2 15 -4 15 -2 0
-6 -7 -10 -15z"/>
<path d="M3503 8903 c-23 -9 -14 -20 12 -15 14 2 25 8 25 13 0 10 -17 11 -37
2z"/>
<path d="M3465 8890 c-3 -5 -1 -10 4 -10 6 0 11 5 11 10 0 6 -2 10 -4 10 -3 0
-8 -4 -11 -10z"/>
<path d="M3389 8863 l-24 -26 33 23 c33 25 38 30 24 30 -5 0 -19 -12 -33 -27z"/>
<path d="M4180 8865 c-7 -9 -8 -15 -2 -15 5 0 12 7 16 15 3 8 4 15 2 15 -2 0
-9 -7 -16 -15z"/>
<path d="M6714 8807 c-31 -33 -41 -55 -15 -32 20 17 47 55 39 55 -2 0 -12 -10
-24 -23z"/>
<path d="M3289 8763 c-13 -16 -12 -17 4 -4 9 7 17 15 17 17 0 8 -8 3 -21 -13z"/>
<path d="M7808 8763 c7 -3 16 -2 19 1 4 3 -2 6 -13 5 -11 0 -14 -3 -6 -6z"/>
<path d="M7806 8738 c3 -4 9 -8 15 -8 5 0 9 4 9 8 0 5 -7 9 -15 9 -8 0 -12 -4
-9 -9z"/>
<path d="M3239 8263 c-13 -16 -12 -17 4 -4 16 13 21 21 13 21 -2 0 -10 -8 -17
-17z"/>
<path d="M3045 8039 c-4 -6 -5 -12 -2 -15 2 -3 7 2 10 11 7 17 1 20 -8 4z"/>
<path d="M2701 7513 c-1 -6 -4 -20 -7 -30 -5 -17 -5 -17 6 0 6 10 9 23 6 30
-3 9 -5 9 -5 0z"/>
<path d="M2670 7445 c-7 -9 -8 -15 -2 -15 5 0 12 7 16 15 3 8 4 15 2 15 -2 0
-9 -7 -16 -15z"/>
<path d="M2631 7384 c0 -11 3 -14 6 -6 3 7 2 16 -1 19 -3 4 -6 -2 -5 -13z"/>
<path d="M8161 6654 c0 -11 3 -14 6 -6 3 7 2 16 -1 19 -3 4 -6 -2 -5 -13z"/>
<path d="M2080 6650 c0 -5 5 -10 11 -10 5 0 7 5 4 10 -3 6 -8 10 -11 10 -2 0
-4 -4 -4 -10z"/>
<path d="M7805 6641 c-3 -5 -1 -12 5 -16 5 -3 10 1 10 9 0 18 -6 21 -15 7z"/>
<path d="M1792 6530 c0 -14 2 -19 5 -12 2 6 2 18 0 25 -3 6 -5 1 -5 -13z"/>
<path d="M2064 6516 c-3 -8 -4 -25 -2 -38 3 -17 5 -13 9 15 5 38 2 47 -7 23z"/>
<path d="M8428 6468 c-3 -7 -1 -29 2 -49 5 -27 4 -36 -5 -33 -7 3 -15 -2 -18
-10 -4 -10 -19 -16 -37 -16 -26 0 -29 -2 -18 -14 7 -7 18 -12 24 -9 7 2 15 0
19 -6 3 -7 -2 -11 -14 -11 -12 0 -21 -5 -21 -11 0 -7 12 -10 29 -7 27 4 28 2
24 -28 -3 -22 0 -33 11 -37 10 -4 13 -13 10 -24 -5 -14 -4 -15 4 -4 6 8 8 28
6 45 -5 45 3 65 27 61 11 -2 17 0 14 4 -2 5 23 12 56 15 34 4 60 9 58 11 -4 3
-75 14 -100 15 -31 0 -52 26 -56 71 -5 48 -9 57 -15 37z"/>
<path d="M1738 6403 c7 -3 16 -2 19 1 4 3 -2 6 -13 5 -11 0 -14 -3 -6 -6z"/>
<path d="M1782 6378 c-7 -7 -12 -18 -12 -25 0 -9 -21 -13 -77 -14 -97 0 -68
-14 37 -18 41 -1 76 -7 78 -12 2 -5 12 -5 23 2 22 11 16 31 -6 23 -15 -6 -37
33 -28 49 6 11 -2 8 -15 -5z"/>
<path d="M2038 6365 c-6 -30 -3 -43 8 -33 3 4 4 19 2 35 l-3 28 -7 -30z"/>
<path d="M8478 6383 c7 -3 16 -2 19 1 4 3 -2 6 -13 5 -11 0 -14 -3 -6 -6z"/>
<path d="M2161 6334 c0 -11 3 -14 6 -6 3 7 2 16 -1 19 -3 4 -6 -2 -5 -13z"/>
<path d="M2033 6240 c1 -44 6 -80 10 -80 5 0 7 36 5 80 -2 44 -6 80 -10 80 -4
0 -7 -36 -5 -80z"/>
<path d="M8193 6195 c0 -22 2 -30 4 -17 2 12 2 30 0 40 -3 9 -5 -1 -4 -23z"/>
<path d="M8422 6090 c0 -14 2 -19 5 -12 2 6 2 18 0 25 -3 6 -5 1 -5 -13z"/>
<path d="M2048 6012 c6 -97 20 -122 17 -28 -2 43 -8 83 -12 87 -5 5 -7 -21 -5
-59z"/>
<path d="M1813 5905 c0 -22 2 -30 4 -17 2 12 2 30 0 40 -3 9 -5 -1 -4 -23z"/>
<path d="M8400 5875 c0 -19 2 -35 4 -35 2 0 6 16 8 35 2 19 0 35 -4 35 -4 0
-8 -16 -8 -35z"/>
<path d="M1822 5830 c0 -14 2 -19 5 -12 2 6 2 18 0 25 -3 6 -5 1 -5 -13z"/>
<path d="M8331 5584 c0 -11 3 -14 6 -6 3 7 2 16 -1 19 -3 4 -6 -2 -5 -13z"/>
<path d="M3150 4970 c0 -5 5 -10 10 -10 6 0 10 5 10 10 0 6 -4 10 -10 10 -5 0
-10 -4 -10 -10z"/>
<path d="M3195 4970 c-3 -5 -1 -10 4 -10 6 0 11 5 11 10 0 6 -2 10 -4 10 -3 0
-8 -4 -11 -10z"/>
<path d="M3468 4878 c9 -9 15 -9 24 0 9 9 7 12 -12 12 -19 0 -21 -3 -12 -12z"/>
<path d="M3360 4870 c0 -5 7 -7 15 -4 8 4 15 8 15 10 0 2 -7 4 -15 4 -8 0 -15
-4 -15 -10z"/>
<path d="M2927 4724 c-8 -14 41 -66 55 -58 6 4 1 12 -13 19 -12 7 -26 21 -29
31 -4 10 -9 13 -13 8z"/>
<path d="M3950 4610 c-9 -6 -10 -10 -3 -10 6 0 15 5 18 10 8 12 4 12 -15 0z"/>
<path d="M3920 4440 c0 -5 5 -10 10 -10 6 0 10 5 10 10 0 6 -4 10 -10 10 -5 0
-10 -4 -10 -10z"/>
<path d="M6745 4160 c-3 -6 1 -7 9 -4 18 7 21 14 7 14 -6 0 -13 -4 -16 -10z"/>
<path d="M6696 4122 c-3 -5 1 -9 9 -9 8 0 12 4 9 9 -3 4 -7 8 -9 8 -2 0 -6 -4
-9 -8z"/>
<path d="M7090 2999 c0 -4 7 -9 15 -13 9 -3 15 0 15 8 0 7 -7 13 -15 13 -8 0
-15 -4 -15 -8z"/>
<path d="M2495 2120 c-16 -21 -37 -40 -46 -43 -10 -2 -24 -20 -34 -40 -9 -19
-25 -37 -36 -40 -10 -3 -22 -13 -26 -23 -4 -10 -17 -28 -30 -40 -13 -12 -23
-27 -23 -33 0 -7 -4 -10 -9 -6 -5 3 -12 1 -16 -5 -4 -6 -11 -8 -16 -5 -5 4 -9
-1 -9 -9 0 -8 -7 -22 -16 -30 -8 -9 -12 -21 -9 -27 5 -6 0 -10 -11 -9 -49 5
-59 0 -58 -28 0 -16 4 -35 9 -42 5 -8 4 -11 -2 -7 -13 8 -38 -28 -45 -65 -4
-24 -3 -26 13 -17 11 5 19 14 19 18 0 5 15 27 33 48 17 22 48 59 67 83 19 24
59 69 89 99 52 54 110 123 141 171 8 13 25 35 38 50 12 15 22 31 22 34 0 15
-17 2 -45 -34z"/>
<path d="M8067 1933 c-10 -9 -9 -23 1 -23 5 0 9 7 9 15 0 17 -1 18 -10 8z"/>
<path d="M2305 1810 c-3 -5 1 -10 10 -10 9 0 13 5 10 10 -3 6 -8 10 -10 10 -2
0 -7 -4 -10 -10z"/>
<path d="M2598 1273 c6 -2 18 -2 25 0 6 3 1 5 -13 5 -14 0 -19 -2 -12 -5z"/>
<path d="M2631 1224 c0 -11 3 -14 6 -6 3 7 2 16 -1 19 -3 4 -6 -2 -5 -13z"/>
<path d="M2640 986 c0 -8 -6 -17 -12 -19 -8 -3 -6 -6 5 -6 9 -1 17 6 17 14 0
8 5 15 10 15 6 0 10 -4 10 -10 0 -5 5 -10 11 -10 8 0 8 5 -1 15 -16 19 -40 19
-40 1z"/>
<path d="M2589 933 c-13 -17 -13 -17 6 -3 11 8 22 16 24 17 2 2 0 3 -6 3 -6 0
-17 -8 -24 -17z"/>
<path d="M7890 689 c0 -5 5 -7 10 -4 6 3 10 8 10 11 0 2 -4 4 -10 4 -5 0 -10
-5 -10 -11z"/>
<path d="M2485 680 c-3 -5 3 -10 14 -10 12 0 21 5 21 10 0 6 -6 10 -14 10 -8
0 -18 -4 -21 -10z"/>
<path d="M7610 490 c-13 -8 -12 -10 3 -10 9 0 17 5 17 10 0 12 -1 12 -20 0z"/>
<path d="M7596 441 c2 -2 -3 -12 -11 -21 -14 -16 -14 -18 5 -23 11 -3 18 -2
15 3 -3 4 2 11 11 14 8 3 13 10 10 15 -4 5 0 11 6 14 7 2 1 4 -14 3 -14 0 -24
-3 -22 -5z"/>
<path d="M7680 410 c0 -5 5 -10 11 -10 5 0 7 5 4 10 -3 6 -8 10 -11 10 -2 0
-4 -4 -4 -10z"/>
<path d="M7490 310 c0 -5 5 -10 11 -10 5 0 7 5 4 10 -3 6 -8 10 -11 10 -2 0
-4 -4 -4 -10z"/>
<path d="M7568 313 c7 -3 16 -2 19 1 4 3 -2 6 -13 5 -11 0 -14 -3 -6 -6z"/>
<path d="M3120 140 c0 -5 5 -10 10 -10 6 0 10 5 10 10 0 6 -4 10 -10 10 -5 0
-10 -4 -10 -10z"/>
<path d="M6755 120 c-3 -5 -1 -10 4 -10 6 0 11 5 11 10 0 6 -2 10 -4 10 -3 0
-8 -4 -11 -10z"/>
<path d="M6725 79 c-9 -14 -2 -20 14 -10 8 6 9 11 3 15 -6 3 -14 1 -17 -5z"/>
<path d="M6086 54 c-6 -15 -4 -15 11 -3 10 7 20 15 22 16 2 2 -3 3 -11 3 -9 0
-19 -7 -22 -16z"/>
<path d="M6225 60 c6 -10 4 -12 -8 -7 -27 10 -28 -9 -2 -21 22 -10 25 -9 25 8
0 10 -5 22 -12 26 -7 5 -8 3 -3 -6z"/>
<path d="M3200 50 c0 -5 5 -10 11 -10 5 0 7 5 4 10 -3 6 -8 10 -11 10 -2 0 -4
-4 -4 -10z"/>
<path d="M6281 39 c-1 -9 7 -23 17 -30 15 -12 16 -12 6 1 -6 8 -14 22 -17 30
-5 13 -6 12 -6 -1z"/>
<path d="M6151 21 c-10 -6 -10 -10 -1 -16 13 -8 24 -1 19 14 -3 6 -10 7 -18 2z"/>
<path d="M6500 10 c0 -5 5 -10 10 -10 6 0 10 5 10 10 0 6 -4 10 -10 10 -5 0
-10 -4 -10 -10z"/>
<path d="M6575 10 c-19 -8 -19 -9 3 -9 12 -1 22 4 22 9 0 6 -1 10 -2 9 -2 0
-12 -4 -23 -9z"/>
<path d="M6248 3 c6 -2 18 -2 25 0 6 3 1 5 -13 5 -14 0 -19 -2 -12 -5z"/>
</g>
</svg>
